<?xml version="1.0" standalone="no"?>
<!DOCTYPE svg PUBLIC "-//W3C//DTD SVG 20010904//EN"
 "http://www.w3.org/TR/2001/REC-SVG-20010904/DTD/svg10.dtd">
<svg version="1.0" xmlns="http://www.w3.org/2000/svg"
 width="578.000000pt" height="512.000000pt" viewBox="0 0 578.000000 512.000000"
 preserveAspectRatio="xMidYMid meet">

<g transform="translate(0.000000,512.000000) scale(0.100000,-0.100000)"
fill="#000000" stroke="none">
<path d="M1537 4923 c-4 -3 -7 -480 -7 -1059 0 -862 3 -1066 14 -1126 39 -200
148 -352 349 -482 79 -52 221 -124 278 -141 13 -4 38 -13 54 -20 17 -7 68 -26
115 -43 227 -80 270 -97 335 -127 39 -18 80 -42 92 -54 32 -30 74 -26 135 13
79 50 109 62 408 167 486 171 708 351 787 640 17 59 18 141 18 1149 l0 1085
-1286 3 c-707 1 -1289 -1 -1292 -5z m2563 -1058 c0 -907 -2 -1045 -15 -1045
-11 0 -196 125 -510 346 -70 50 -370 257 -568 394 l-166 115 -1 618 0 617 630
0 630 0 0 -1045z m-1870 988 c-21 -8 -83 -63 -71 -63 6 0 22 12 36 27 28 31
34 20 7 -14 -10 -12 -32 -24 -52 -26 -19 -3 -12 -4 15 -2 63 3 139 30 109 39
-10 3 7 4 39 1 31 -2 55 0 52 5 -3 4 2 11 11 14 8 3 12 2 9 -4 -3 -6 1 -7 9
-4 9 3 13 10 10 15 -3 5 -2 9 3 9 4 0 18 3 31 6 13 4 22 2 22 -5 0 -7 -5 -9
-12 -5 -7 4 -8 3 -4 -4 4 -7 3 -12 -2 -12 -6 0 -19 -19 -31 -42 -20 -43 -10
-35 29 21 8 12 21 19 28 16 7 -2 11 -1 8 3 -3 5 2 9 10 9 10 0 13 -6 8 -16 -4
-9 -7 -38 -7 -65 1 -31 -2 -43 -8 -35 -7 11 -9 10 -9 -3 0 -9 5 -20 11 -23 10
-7 29 -48 33 -73 1 -7 8 -18 14 -24 7 -7 12 -23 11 -37 l-1 -26 -10 28 c-5 15
-14 25 -19 21 -5 -3 -9 -1 -9 5 0 5 -9 12 -19 16 -12 3 -21 17 -23 33 -3 17
-7 5 -12 -33 -16 -126 -41 -163 -139 -200 -46 -17 -86 -17 -207 0 -19 3 1 -4
45 -16 69 -17 87 -19 132 -9 28 6 63 20 77 31 14 11 26 16 26 10 0 -18 -48
-47 -110 -66 -59 -18 -65 -18 -110 -2 -62 22 -66 22 -125 -9 -37 -19 -42 -24
-20 -19 17 3 37 13 46 21 19 17 65 19 75 2 5 -8 0 -9 -14 -6 -14 4 -20 2 -15
-5 4 -7 0 -8 -11 -4 -11 5 -34 -6 -67 -33 -28 -22 -46 -40 -41 -40 5 0 21 9
35 20 30 24 38 25 31 6 -3 -8 -23 -26 -44 -39 -26 -18 -39 -35 -42 -56 -2 -16
-1 -28 4 -25 4 3 8 16 8 29 0 19 10 30 40 45 37 19 40 19 49 2 10 -16 10 -16
11 1 0 9 -4 17 -9 17 -5 0 -7 9 -4 20 6 23 14 25 31 8 7 -7 8 -17 1 -29 -7
-14 -5 -27 6 -49 9 -16 17 -30 19 -30 3 0 12 -3 21 -6 11 -4 7 3 -9 19 -31 31
-34 72 -6 89 11 7 20 17 20 22 0 4 -6 4 -12 -1 -16 -12 -28 -11 -53 4 -11 6
-17 15 -13 19 4 4 14 2 22 -5 11 -9 15 -9 18 1 3 9 23 12 67 11 35 -2 71 2 81
7 25 13 90 23 68 10 -10 -6 -14 -18 -11 -32 4 -19 3 -20 -6 -8 -12 17 -14 10
-5 -14 3 -9 10 -14 15 -11 12 8 42 -42 33 -56 -4 -7 -3 -9 4 -5 13 8 26 -40
30 -118 2 -22 5 -27 13 -19 9 9 17 9 32 0 26 -15 51 -37 41 -37 -4 0 1 -9 11
-20 10 -11 21 -17 25 -15 5 3 10 0 12 -7 7 -21 70 -13 90 11 22 28 24 88 3
117 -8 12 -11 24 -8 28 3 3 1 6 -6 6 -7 0 -10 4 -6 10 3 5 -7 17 -22 27 -39
25 -47 34 -61 69 -14 34 -8 77 14 95 8 6 14 19 14 29 0 9 11 23 25 30 14 7 25
17 25 21 0 5 6 6 14 3 8 -3 17 0 22 7 5 8 3 10 -7 5 -8 -4 -6 -1 4 7 17 14 24
47 9 47 -4 0 -9 19 -10 43 -1 38 0 40 10 17 16 -36 20 -52 22 -82 1 -20 4 -24
14 -16 7 6 10 19 6 31 -3 11 -8 42 -10 69 -3 43 0 50 19 57 32 12 49 36 56 78
9 55 26 50 27 -7 1 -28 -3 -50 -7 -50 -5 0 -9 -6 -9 -14 0 -8 -5 -18 -12 -22
-7 -5 -8 -3 -3 6 5 8 4 11 -3 6 -6 -4 -8 -14 -5 -23 4 -9 2 -14 -3 -11 -5 4
-8 -7 -8 -23 1 -16 2 -44 3 -61 1 -26 4 -30 11 -18 6 8 10 29 9 45 -2 31 8 65
20 65 3 0 5 -18 5 -40 -1 -22 2 -40 8 -40 5 0 7 -4 3 -9 -3 -5 0 -22 7 -37 10
-21 10 -28 1 -31 -7 -3 -9 -11 -6 -19 3 -9 -9 -28 -31 -49 -35 -33 -38 -34
-107 -30 -40 3 -69 2 -66 -2 4 -3 -3 -14 -15 -25 -22 -19 -22 -19 -3 -53 10
-19 22 -35 26 -35 4 0 26 -19 48 -42 28 -30 39 -49 35 -62 -3 -10 -2 -16 3
-13 5 3 9 -18 9 -48 -1 -29 -3 -52 -6 -50 -4 2 -12 -6 -20 -18 -12 -21 -12
-21 5 -7 17 14 18 14 6 -8 -18 -33 -58 -55 -104 -58 -23 -1 -49 -5 -57 -8 -9
-4 -24 1 -35 10 -11 8 -14 12 -6 8 9 -5 12 -3 7 4 -4 7 -14 12 -23 12 -9 0
-13 3 -10 6 3 4 0 16 -8 28 -25 35 -16 43 11 9 28 -36 91 -60 109 -41 7 8 6 9
-6 6 -22 -8 -72 15 -101 47 -29 31 -43 20 -28 -20 5 -14 10 -39 10 -55 0 -16
5 -30 11 -32 8 -3 5 -10 -6 -22 -14 -14 -20 -15 -26 -4 -5 8 -6 -1 -3 -22 9
-45 14 -51 14 -14 0 22 3 26 10 14 8 -13 10 -13 10 1 0 12 10 16 40 16 22 0
40 -4 40 -9 0 -5 4 -7 9 -4 5 3 8 -11 7 -32 -1 -23 4 -37 12 -38 6 -1 19 -2
27 -3 8 0 15 -7 15 -15 0 -9 -10 -13 -32 -10 -18 1 -37 3 -41 3 -5 1 -6 5 -2
10 3 5 1 12 -5 16 -5 3 -10 17 -10 31 0 17 -5 24 -20 24 -21 0 -20 -9 7 -60
15 -30 17 -108 3 -144 -5 -15 -6 -26 0 -26 12 0 20 29 22 74 1 29 5 36 17 31
12 -5 12 -3 -2 12 -15 18 -15 19 3 19 11 0 20 -5 20 -11 0 -5 5 -3 11 5 8 12
9 8 7 -15 -2 -20 1 -29 10 -28 15 4 16 -9 0 -25 -9 -9 -16 -8 -32 6 -20 17
-20 17 -3 -10 20 -33 21 -45 5 -81 -15 -31 -25 -34 -31 -9 -2 9 -3 5 -1 -10 3
-24 -2 -30 -31 -42 -19 -8 -35 -21 -35 -27 0 -7 -6 -4 -14 6 -8 11 -12 24 -9
28 3 5 10 3 15 -4 7 -11 8 -9 6 5 -2 10 3 21 10 23 8 3 10 -1 5 -13 -6 -16 -5
-17 9 -4 19 17 13 32 -10 29 -29 -2 -31 0 -22 34 9 29 8 30 -5 13 -17 -23 -20
-56 -4 -56 6 0 4 -7 -4 -15 -9 -8 -17 -20 -20 -27 -3 -10 -9 -10 -25 -1 -16
10 -21 9 -26 -2 -3 -9 0 -12 9 -9 12 5 12 1 2 -20 -17 -36 -27 -32 -28 12 -1
20 -5 48 -9 62 -8 24 -8 24 -9 2 -1 -12 -8 -25 -16 -28 -8 -4 -15 -14 -15 -23
-1 -14 -2 -14 -11 2 -12 20 -4 50 19 74 16 15 15 16 -11 11 -32 -6 -32 -6 -12
32 15 29 35 40 35 20 0 -5 -5 -10 -11 -10 -8 0 -8 -4 1 -15 10 -12 15 -12 36
1 13 9 31 14 39 10 11 -4 14 -2 9 6 -5 8 -2 9 9 5 14 -5 17 0 17 34 0 36 -23
99 -36 99 -3 0 -2 -6 2 -12 5 -9 3 -9 -9 1 -9 7 -14 17 -11 22 5 9 -9 13 -35
10 -7 -2 -10 2 -7 7 6 11 -23 26 -32 17 -3 -3 1 -5 8 -5 7 0 11 -3 8 -6 -10
-9 -48 15 -48 30 0 8 -8 20 -17 27 -17 13 -17 12 -4 -6 14 -19 14 -19 -4 -3
-11 11 -21 37 -25 65 -3 27 -7 46 -10 44 -10 -9 -50 20 -44 31 4 7 3 8 -4 4
-8 -5 -12 1 -12 16 0 13 -5 30 -10 38 -7 11 -8 5 -4 -20 4 -19 7 -37 6 -40 0
-21 -4 -31 -18 -45 -27 -26 -10 -26 18 0 17 16 29 21 33 14 4 -6 14 -8 22 -5
21 8 13 -34 -10 -48 -13 -8 -20 -8 -27 3 -13 21 -60 -2 -60 -29 0 -11 5 -20
10 -20 6 0 10 9 10 19 0 26 11 32 31 18 18 -14 22 -56 7 -74 -12 -15 -32 -18
-23 -3 3 6 -1 7 -9 4 -19 -7 -22 -25 -4 -21 6 1 13 -7 15 -18 4 -17 2 -18 -7
-5 -9 12 -11 10 -6 -10 3 -16 -2 -34 -14 -50 -18 -23 -20 -24 -21 -5 -1 11 -1
26 0 33 1 6 -3 12 -10 12 -7 0 -9 -9 -5 -26 4 -16 3 -23 -3 -19 -6 3 -8 0 -6
-8 6 -13 -31 -55 -40 -46 -2 3 -7 20 -10 39 -8 47 -19 54 -12 8 6 -40 -3 -48
-53 -48 -16 0 -36 -7 -45 -16 -15 -15 -17 -14 -28 15 -12 34 -37 40 -58 15
-11 -13 -14 -13 -21 -1 -8 16 0 77 11 76 3 0 15 -4 26 -9 17 -7 17 -9 3 -9
-10 -1 -22 -11 -29 -23 -10 -18 -9 -20 6 -15 9 4 20 7 25 7 4 0 10 9 13 21 4
15 0 23 -14 26 -26 7 -24 18 10 42 53 38 82 24 47 -23 -22 -30 -39 -66 -32
-66 2 0 16 20 31 45 21 36 30 45 46 40 10 -4 19 -4 19 -1 0 7 -61 36 -77 36
-12 0 -70 -35 -83 -51 -3 -3 -15 -11 -27 -18 -21 -11 -23 -9 -23 12 0 27 33
62 49 52 6 -3 23 3 38 15 15 12 35 18 47 15 12 -3 6 2 -13 11 -18 8 -45 13
-60 11 -21 -3 -20 -4 8 -6 33 -1 34 -2 15 -16 -22 -17 -38 -20 -29 -5 3 6 -3
10 -14 10 -28 0 -27 18 2 25 52 11 87 13 87 4 0 -6 5 -7 11 -4 6 4 13 -2 16
-14 3 -12 12 -21 20 -21 8 0 11 -4 8 -10 -3 -5 1 -10 10 -10 10 0 13 5 9 12
-5 7 -2 9 9 5 27 -10 47 51 47 141 0 101 15 124 83 127 26 1 47 -1 47 -5 0
-13 50 -21 69 -11 12 7 22 6 29 -1 9 -9 12 -9 12 0 0 7 -10 16 -22 21 -13 5
-41 17 -63 26 -22 10 -43 17 -48 16 -4 0 -5 10 -3 24 3 16 1 23 -6 19 -5 -3
-8 -17 -5 -30 2 -13 -2 -29 -9 -35 -11 -9 -14 -7 -15 12 -1 13 -1 26 -1 30 0
3 -8 10 -19 17 -16 10 -19 9 -19 -4 0 -9 5 -13 13 -9 6 4 4 0 -5 -8 -10 -8
-15 -16 -12 -20 3 -3 -8 -8 -25 -12 -17 -4 -31 -11 -31 -16 0 -5 -7 -9 -15 -9
-8 0 -15 -5 -15 -11 0 -8 -5 -7 -15 1 -13 11 -14 10 -10 -1 3 -8 -4 -20 -16
-27 -20 -13 -21 -12 -16 7 8 32 -7 25 -20 -9 -11 -28 -33 -42 -33 -20 0 6 5
10 11 10 5 0 7 5 4 10 -4 7 -14 2 -26 -11 l-19 -22 0 23 c0 13 -3 20 -7 16 -5
-4 -8 -13 -8 -19 0 -7 -13 -12 -28 -12 -16 0 -34 -8 -41 -17 -15 -21 -26 -13
-26 19 0 13 -5 23 -11 23 -5 0 -8 -4 -5 -9 4 -5 -4 -7 -15 -4 -14 4 -27 0 -35
-11 -11 -16 -13 -15 -12 13 1 17 7 36 14 42 14 11 8 42 -7 33 -5 -3 -9 -2 -9
3 0 17 17 33 52 47 33 14 58 15 115 2 16 -3 38 9 83 50 33 30 55 54 47 54 -7
0 -22 -8 -33 -17 -20 -19 -124 -30 -124 -14 0 11 25 21 54 21 13 0 30 8 39 18
15 17 14 18 -10 20 -15 1 -30 7 -33 12 -4 6 -17 12 -30 15 -26 5 -40 15 -21
15 7 0 9 5 5 11 -4 7 0 9 12 6 11 -3 31 -8 47 -11 15 -4 27 -13 27 -21 0 -25
17 -17 70 30 28 25 55 45 60 45 5 0 7 7 4 15 -4 8 -10 12 -15 9 -5 -3 -7 -10
-4 -15 3 -5 -1 -6 -9 -3 -10 4 -16 1 -16 -7 0 -10 -17 -14 -60 -15 -32 -1 -57
3 -54 7 3 5 -3 6 -12 2 -14 -5 -12 -8 10 -20 21 -11 31 -12 42 -2 11 9 14 8
14 -6 0 -15 -6 -16 -42 -10 -24 5 -57 9 -75 9 -26 1 -30 4 -22 19 6 11 6 17
-1 17 -5 0 -10 -4 -10 -10 0 -16 -26 -12 -41 7 -10 11 -10 14 -1 9 6 -4 12 -3
12 2 0 5 -18 12 -40 16 -45 7 -47 11 -23 38 15 17 15 20 3 28 -8 6 -23 10 -34
10 -15 0 -16 3 -6 15 14 16 46 20 54 6 3 -4 -7 -6 -22 -4 l-27 4 30 -14 c27
-12 30 -12 33 5 4 22 50 25 78 3 18 -14 18 -14 -6 -15 -14 0 -35 -7 -46 -15
-12 -8 -25 -11 -30 -7 -5 4 -3 0 2 -8 6 -8 14 -22 17 -30 5 -10 6 -8 4 5 -4
28 52 53 69 31 8 -12 11 -5 11 34 1 42 -3 52 -21 62 -11 6 -24 16 -28 22 -5 7
-8 5 -8 -5 0 -9 11 -21 25 -27 39 -18 30 -28 -22 -28 -46 1 -71 16 -58 35 3 5
-5 13 -17 17 -22 7 -22 7 -3 15 31 12 38 10 31 -6 -3 -8 -1 -15 4 -15 6 0 10
5 10 12 0 6 3 8 6 5 4 -4 1 -14 -7 -23 -12 -15 -12 -17 0 -12 22 7 33 58 14
65 -12 5 -12 7 -1 14 24 15 45 9 78 -22 30 -30 32 -34 26 -85 -5 -47 -3 -55
15 -64 11 -6 28 -10 38 -8 10 2 24 -2 32 -9 18 -15 263 -24 298 -11 13 5 40
23 60 40 l35 31 -29 -8 c-54 -15 -105 -6 -117 21 -6 13 -7 10 -3 -10 5 -26 4
-28 -9 -17 -13 11 -15 9 -13 -16 2 -26 -1 -28 -38 -30 -22 -1 -34 0 -27 3 6 3
12 12 12 20 0 9 5 12 10 9 6 -3 10 -1 10 4 0 6 -5 11 -11 11 -5 0 -7 5 -4 10
4 7 -8 10 -34 8 -22 -2 -43 -8 -45 -15 -4 -9 1 -10 20 -3 46 18 50 10 6 -10
-49 -22 -70 -17 -91 23 -9 18 -10 30 -3 44 13 23 7 33 -33 55 -16 9 -31 21
-33 27 -5 15 65 14 74 -1 5 -8 -4 -10 -32 -6 l-39 6 30 -13 c34 -16 81 -19 89
-6 3 4 -6 6 -21 3 -17 -3 -24 -1 -19 6 3 6 2 13 -3 16 -5 3 -14 20 -20 36 -5
17 -7 29 -3 26 4 -2 13 3 21 11 12 13 11 14 -8 8 -12 -3 -21 -2 -21 4 0 13 27
21 90 25 30 1 55 8 60 16 5 9 24 13 52 12 27 -2 54 4 72 15 16 10 47 19 70 20
23 1 34 -1 26 -4z m4 -56 c-21 -12 -30 -1 -14 18 10 13 15 13 21 3 5 -8 2 -16
-7 -21z m246 -216 c5 -11 10 -36 10 -55 0 -30 4 -36 21 -36 11 0 17 -4 14 -10
-4 -6 -14 -10 -23 -9 -39 3 -48 -2 -47 -25 0 -13 3 -28 8 -32 10 -10 9 -44 -2
-44 -24 0 -41 14 -42 34 -1 17 -2 16 -9 -7 -11 -36 -30 -58 -42 -51 -6 4 -8
-2 -3 -15 3 -11 2 -21 -3 -21 -13 0 -35 27 -25 32 10 4 43 53 68 101 l20 38 7
-43 c6 -43 6 -42 5 10 -1 28 1 53 5 55 4 1 8 23 9 50 3 50 12 59 29 28z m-302
-73 c-19 -16 -85 -35 -92 -27 -2 2 0 14 5 27 7 19 15 22 58 20 48 -2 49 -3 29
-20z m-313 -123 c-38 -32 -46 -24 -10 10 16 14 30 23 33 20 3 -3 -8 -16 -23
-30z m277 -253 c-8 -2 -24 5 -35 17 l-21 20 36 -17 c21 -10 29 -18 20 -20z
m25 -18 c-3 -3 -12 -4 -19 -1 -8 3 -5 6 6 6 11 1 17 -2 13 -5z m207 -443 c-2
-3 -20 -10 -39 -17 -32 -11 -34 -10 -24 7 7 13 19 19 39 17 16 -1 27 -4 24 -7z
m640 -450 c3 -4 28 -6 56 -3 29 3 50 1 50 -5 0 -6 12 -8 26 -5 18 3 25 1 20
-6 -4 -6 2 -8 14 -5 11 3 20 0 20 -6 0 -5 7 -8 15 -5 8 4 15 2 15 -3 0 -10 4
-11 132 -19 97 -6 97 -6 133 -45 20 -22 42 -39 50 -39 12 0 15 -17 15 -80 l0
-80 34 0 c18 0 60 -12 92 -27 34 -15 74 -26 94 -25 21 1 51 -7 74 -21 50 -28
57 -47 19 -47 -15 0 -49 -7 -74 -14 -52 -16 -103 -9 -167 22 -21 10 -46 16
-57 15 -18 -3 -20 -12 -20 -93 l0 -90 31 0 c31 0 118 -33 110 -41 -3 -2 19 -2
49 -1 39 3 63 -2 94 -17 22 -12 41 -25 41 -30 0 -11 -25 -21 -55 -21 -14 0
-40 -8 -60 -17 -34 -16 -40 -16 -98 0 -134 38 -122 38 -122 3 -3 -221 -4 -225
-30 -242 -14 -9 -39 -17 -54 -18 -16 -1 -27 -4 -24 -8 2 -5 -33 -8 -79 -7 -61
1 -76 3 -58 10 19 7 15 8 -18 4 -45 -6 -141 13 -124 24 18 11 -203 12 -231 2
-14 -6 -35 -19 -47 -31 -20 -20 -97 -30 -85 -10 3 6 -1 7 -10 4 -10 -4 -24 2
-36 15 -11 11 -34 22 -52 23 -68 5 -187 3 -187 -3 0 -11 -109 -31 -131 -24
-15 5 -19 4 -15 -4 5 -8 -14 -11 -63 -11 -39 0 -71 4 -71 10 0 5 -7 7 -15 4
-8 -4 -15 -1 -15 6 0 6 -4 9 -9 5 -5 -3 -26 3 -47 12 l-37 18 6 145 c3 80 1
154 -4 165 -6 14 -8 3 -6 -37 l4 -58 -32 0 c-18 0 -52 -7 -75 -15 -85 -30
-200 -13 -200 31 0 8 -9 14 -19 14 -11 0 -23 5 -26 10 -3 6 3 10 14 10 11 0
32 12 46 26 25 25 31 26 93 21 36 -3 77 0 91 5 15 6 42 11 61 12 33 2 35 5 41
44 3 23 2 42 -3 42 -4 0 -8 12 -8 26 0 16 4 23 11 18 14 -8 3 115 -10 129 -5
5 -5 -10 -1 -32 7 -37 5 -41 -14 -42 -20 -2 -20 -2 2 -6 12 -2 22 -10 22 -17
0 -10 -12 -12 -43 -9 -33 4 -55 -1 -88 -17 -31 -16 -63 -23 -105 -24 -77 -1
-104 18 -99 70 5 53 20 64 84 64 l57 0 -6 -55 c-4 -41 -3 -56 8 -60 7 -2 10 0
7 5 -3 6 1 10 10 10 9 0 13 5 10 10 -4 6 -11 8 -16 4 -6 -3 -9 11 -7 38 3 33
8 43 21 42 9 -1 17 1 17 6 0 13 51 30 91 30 l41 0 -7 85 c-7 81 -6 85 13 85
10 0 37 18 58 40 37 38 41 39 92 36 30 -3 76 2 103 10 27 8 55 12 61 8 7 -5 8
-3 3 6 -6 10 -3 12 13 8 14 -4 20 -2 15 5 -4 6 2 8 15 5 12 -4 22 -2 22 4 0 6
7 8 15 5 8 -4 17 -1 21 4 3 6 17 9 30 6 14 -2 27 0 30 4 6 10 177 12 211 3 13
-4 20 -10 17 -15 -3 -5 7 -4 21 1 32 12 38 12 31 1 -4 -5 3 -7 15 -4 16 5 18
8 7 15 -8 6 0 7 25 3 24 -4 37 -3 33 3 -3 5 14 10 39 10 24 1 47 -2 49 -7z
m-1254 -411 c0 -5 -11 -10 -25 -10 -14 0 -25 5 -25 10 0 6 11 10 25 10 14 0
25 -4 25 -10z"/>
<path d="M3008 4883 c6 -2 18 -2 25 0 6 3 1 5 -13 5 -14 0 -19 -2 -12 -5z"/>
<path d="M3338 4883 c7 -3 16 -2 19 1 4 3 -2 6 -13 5 -11 0 -14 -3 -6 -6z"/>
<path d="M3508 4883 c7 -3 16 -2 19 1 4 3 -2 6 -13 5 -11 0 -14 -3 -6 -6z"/>
<path d="M4085 4510 c0 -206 1 -291 2 -187 2 103 2 271 0 375 -1 103 -2 18 -2
-188z"/>
<path d="M2851 4844 c0 -11 3 -14 6 -6 3 7 2 16 -1 19 -3 4 -6 -2 -5 -13z"/>
<path d="M3040 4845 c-7 -8 -10 -21 -7 -29 3 -8 3 -16 -1 -18 -4 -2 -15 -18
-25 -36 -13 -25 -14 -38 -6 -50 7 -13 9 -13 6 -2 -2 8 6 33 19 56 13 22 21 44
18 47 -4 4 -1 13 6 22 7 9 11 18 8 20 -3 3 -11 -1 -18 -10z"/>
<path d="M3080 4850 c-8 -5 -10 -10 -5 -10 6 0 17 5 25 10 8 5 11 10 5 10 -5
0 -17 -5 -25 -10z"/>
<path d="M3369 4853 c-1 -5 -1 -11 -1 -14 1 -4 -9 -10 -22 -13 -12 -3 -23 -12
-23 -21 0 -13 3 -13 16 -2 29 25 39 27 54 12 13 -13 16 -13 21 0 3 10 -3 17
-19 21 -14 3 -22 10 -19 15 3 5 3 9 0 9 -3 0 -7 -3 -7 -7z"/>
<path d="M3072 4806 c1 -14 7 -22 12 -19 5 4 7 -1 3 -11 -5 -11 -3 -15 5 -10
8 5 9 -2 5 -25 -4 -18 -3 -30 2 -27 14 9 10 -96 -7 -151 -15 -49 -14 -54 2
-72 21 -23 16 -56 -12 -99 -9 -15 -17 -44 -18 -67 -1 -22 -2 -64 -3 -93 0 -33
-5 -51 -11 -47 -5 3 -10 1 -10 -4 0 -6 7 -11 15 -11 11 0 15 11 15 39 0 22 5
52 12 68 6 15 11 31 10 36 -3 11 16 8 20 -3 2 -6 9 -1 16 11 11 17 11 20 0 14
-7 -4 -2 2 11 13 13 11 21 24 17 31 -4 6 -2 11 5 11 9 0 9 3 0 14 -6 7 -9 20
-5 29 3 8 1 18 -4 21 -6 4 -9 -13 -8 -43 2 -39 0 -48 -11 -44 -9 4 -16 -3 -20
-16 -3 -11 -9 -21 -14 -21 -11 0 -6 34 8 52 22 27 26 78 7 99 -17 19 -17 22
-1 67 9 26 17 53 17 61 0 8 7 19 15 25 11 8 12 15 4 26 -8 11 -12 12 -16 3 -7
-18 -23 -16 -23 2 0 8 5 15 11 15 14 0 3 67 -17 97 -8 12 -14 29 -14 38 0 8
-4 15 -10 15 -5 0 -9 -11 -8 -24z"/>
<path d="M3471 4797 c34 -30 61 -75 53 -89 -4 -6 -3 -8 3 -5 13 8 46 -27 36
-38 -5 -4 -2 -4 6 0 11 6 13 4 8 -8 -3 -10 -2 -17 2 -17 5 0 12 -24 14 -52 15
-141 36 -216 58 -203 5 4 9 0 9 -8 0 -8 9 -22 20 -32 11 -10 24 -32 28 -49 6
-21 9 3 9 76 1 85 -2 108 -13 112 -10 4 -12 2 -7 -7 10 -15 11 -117 1 -117 -5
0 -8 7 -8 16 0 8 -3 13 -8 10 -16 -10 -43 24 -48 60 -3 22 -9 55 -14 74 -14
54 -20 151 -9 144 5 -3 2 11 -8 31 -15 31 -15 37 -3 45 8 5 18 6 24 3 5 -4 6
-1 1 7 -6 10 -4 12 8 7 10 -3 17 -2 17 4 0 6 5 7 12 3 7 -5 8 -3 3 6 -6 9 -4
12 7 8 9 -4 15 0 15 8 0 8 -1 14 -2 14 -12 0 -75 -39 -93 -57 -20 -22 -21 -26
-7 -39 8 -9 15 -20 15 -27 0 -18 -60 45 -81 86 -11 20 -24 37 -30 37 -6 0 -7
5 -4 10 3 6 -4 10 -17 10 l-23 -1 26 -22z"/>
<path d="M3276 4785 c-9 -13 -16 -31 -16 -39 0 -8 -4 -18 -10 -21 -5 -3 -9
-14 -9 -23 1 -15 2 -15 6 1 2 9 8 17 12 17 4 0 13 16 20 35 7 19 17 35 22 35
5 0 9 5 9 10 0 18 -17 10 -34 -15z"/>
<path d="M3706 4790 c12 -46 23 -70 34 -70 7 0 8 5 3 13 -11 18 -12 36 -2 43
17 10 9 26 -11 21 -10 -3 -21 0 -24 7 -3 6 -3 0 0 -14z m34 -4 c0 -3 -4 -8
-10 -11 -5 -3 -10 -1 -10 4 0 6 5 11 10 11 6 0 10 -2 10 -4z"/>
<path d="M3423 4768 c3 -9 0 -21 -6 -27 -14 -14 -30 -14 -21 1 4 7 3 8 -4 4
-22 -14 -12 -28 16 -22 53 11 95 -54 65 -100 -8 -14 -11 -24 -5 -24 15 0 25
36 27 95 1 28 -1 42 -3 33 -2 -10 -7 -18 -10 -18 -15 1 -42 28 -42 43 0 9 -5
19 -12 23 -7 5 -9 2 -5 -8z"/>
<path d="M2851 4754 c0 -11 3 -14 6 -6 3 7 2 16 -1 19 -3 4 -6 -2 -5 -13z"/>
<path d="M3555 4759 c-4 -6 -5 -12 -2 -15 2 -3 7 2 10 11 7 17 1 20 -8 4z"/>
<path d="M3350 4745 c0 -9 -8 -19 -17 -22 -20 -7 -49 -33 -38 -33 4 0 19 9 35
20 15 11 30 17 33 14 3 -3 3 3 0 15 -6 25 -13 28 -13 6z"/>
<path d="M3026 4728 c-3 -13 -5 -48 -5 -78 1 -30 4 -44 6 -30 3 14 10 31 16
39 9 11 9 13 0 8 -8 -5 -10 5 -7 38 6 48 0 60 -10 23z"/>
<path d="M3693 4728 c2 -15 0 -29 -5 -30 -14 -5 9 -57 33 -77 22 -17 22 -17
-22 -49 -35 -26 -39 -32 -21 -32 13 0 22 6 22 15 0 9 9 15 23 14 12 0 16 -3 9
-6 -14 -5 -7 -23 10 -23 6 0 8 10 4 24 -4 15 0 28 9 36 20 17 19 31 -2 24 -15
-5 -15 -3 1 10 11 9 15 16 10 16 -6 0 -15 -5 -22 -12 -9 -9 -16 -8 -30 5 -15
16 -15 19 -2 27 12 8 12 10 -5 10 -18 1 -18 2 -4 13 13 10 13 15 1 37 l-13 25
4 -27z"/>
<path d="M2851 4714 c0 -11 3 -14 6 -6 3 7 2 16 -1 19 -3 4 -6 -2 -5 -13z"/>
<path d="M3150 4705 c0 -8 2 -15 4 -15 2 0 6 7 10 15 3 8 1 15 -4 15 -6 0 -10
-7 -10 -15z"/>
<path d="M3623 4712 c10 -4 18 -12 17 -17 -1 -5 4 -11 12 -13 11 -3 11 -2 0 6
-8 5 -13 13 -12 18 0 5 -7 10 -17 11 -17 3 -17 2 0 -5z"/>
<path d="M3770 4694 c6 -15 14 -32 17 -38 12 -19 14 -406 3 -406 -6 0 -8 -5
-5 -10 12 -20 -17 -40 -57 -40 -68 0 -158 62 -158 110 0 10 -7 23 -15 30 -19
16 -19 35 1 65 10 15 13 32 9 46 -5 14 -4 19 4 15 6 -4 11 -3 11 3 0 5 -9 13
-20 16 -11 3 -20 11 -20 17 0 6 -3 8 -6 5 -4 -4 -1 -13 6 -22 8 -9 10 -28 6
-52 -4 -21 -9 -51 -10 -68 -2 -16 -4 -34 -5 -40 -1 -5 -6 -3 -11 5 -5 8 -10
11 -10 5 0 -5 4 -17 10 -25 8 -12 10 -12 16 3 9 24 24 21 19 -3 -2 -11 0 -20
6 -20 5 0 9 -5 9 -11 0 -5 -3 -8 -7 -6 -5 3 -9 -39 -11 -93 -2 -92 -1 -98 19
-103 11 -3 19 -10 16 -14 -3 -5 3 -22 14 -39 11 -17 19 -23 19 -14 1 37 19
-18 23 -73 5 -56 2 -62 -30 -58 -7 1 -13 -3 -13 -9 0 -7 14 -10 33 -8 27 2 32
7 32 28 0 14 6 25 13 26 6 1 19 2 27 3 8 0 15 6 15 11 0 6 -14 9 -32 8 -26 -2
-33 1 -36 17 -8 54 -16 69 -51 108 -41 44 -40 41 -33 145 1 13 6 21 11 18 5
-4 11 -2 13 4 2 6 20 -2 41 -16 28 -19 37 -31 34 -45 -3 -12 -1 -17 5 -13 7 5
9 -2 6 -18 -2 -13 2 -30 9 -37 7 -7 11 -16 8 -22 -4 -5 -2 -9 4 -9 5 0 13 -20
17 -45 3 -25 10 -45 15 -45 13 0 11 23 -7 77 -9 26 -22 66 -29 89 l-12 42 49
-2 c72 -2 88 23 89 129 1 213 -6 330 -24 362 -22 42 -40 53 -27 17z m-180
-445 c0 -6 -4 -7 -10 -4 -5 3 -10 11 -10 16 0 6 5 7 10 4 6 -3 10 -11 10 -16z
m21 -206 c13 -16 12 -17 -3 -4 -17 13 -22 21 -14 21 2 0 10 -8 17 -17z"/>
<path d="M2974 4675 c-10 -8 -14 -14 -9 -14 6 0 19 6 29 14 11 8 15 15 10 15
-6 0 -19 -7 -30 -15z"/>
<path d="M3261 4680 c0 -8 6 -33 14 -55 19 -53 19 -87 -1 -111 -14 -17 -15
-17 -10 -1 5 14 -1 12 -29 -9 -19 -14 -35 -32 -35 -39 0 -7 -7 -18 -15 -25 -8
-7 -15 -17 -15 -22 0 -6 16 4 35 21 38 33 74 46 105 38 11 -3 23 0 27 5 3 6 2
8 -4 5 -5 -4 -10 6 -10 23 0 24 3 27 14 19 7 -6 11 -15 8 -19 -3 -5 -1 -11 4
-14 22 -14 14 22 -11 48 l-28 29 4 -37 c3 -20 1 -34 -4 -31 -5 3 -11 1 -15 -5
-3 -5 -11 -10 -16 -10 -5 0 -2 11 7 25 21 32 22 112 1 128 -8 6 -17 21 -20 32
-3 11 -5 13 -6 5z m-1 -189 c0 -9 -24 -21 -43 -21 -6 0 -2 7 9 15 22 17 34 19
34 6z"/>
<path d="M3810 4681 c0 -5 7 -15 17 -22 15 -13 15 -12 4 9 -12 23 -21 28 -21
13z"/>
<path d="M3224 4666 c-9 -9 -8 -17 2 -31 8 -10 17 -15 21 -11 4 4 2 11 -5 15
-7 4 -10 15 -6 24 7 20 3 21 -12 3z"/>
<path d="M3328 4668 c9 -9 15 -9 24 0 9 9 7 12 -12 12 -19 0 -21 -3 -12 -12z"/>
<path d="M3393 4665 c-3 -9 -3 -19 1 -22 3 -4 6 2 6 11 0 11 5 16 13 13 8 -3
20 -1 28 4 10 6 6 9 -14 9 -16 0 -30 -7 -34 -15z"/>
<path d="M3730 4660 c-8 -5 -10 -10 -5 -10 6 0 17 5 25 10 8 5 11 10 5 10 -5
0 -17 -5 -25 -10z"/>
<path d="M3371 4634 c0 -11 3 -14 6 -6 3 7 2 16 -1 19 -3 4 -6 -2 -5 -13z"/>
<path d="M2980 4636 c0 -4 7 -14 15 -22 8 -9 15 -11 15 -6 0 5 -7 15 -15 22
-8 7 -15 9 -15 6z"/>
<path d="M3520 4617 c-12 -21 -12 -21 6 -7 10 8 20 15 22 16 2 1 -1 4 -5 7 -5
3 -15 -4 -23 -16z"/>
<path d="M3623 4608 c0 -30 1 -30 10 -10 7 15 7 26 0 33 -6 6 -10 -1 -10 -23z"/>
<path d="M3668 4605 c2 -19 6 -35 8 -35 2 0 4 16 4 35 0 19 -4 35 -8 35 -4 0
-6 -16 -4 -35z"/>
<path d="M3048 4597 c4 -14 2 -18 -7 -12 -10 6 -11 3 -2 -14 12 -22 31 -29 31
-10 0 5 -4 7 -10 4 -12 -8 -13 -3 -1 28 7 17 6 24 -4 24 -7 0 -10 -8 -7 -20z"/>
<path d="M3249 4603 c-1 -5 -2 -17 -3 -28 -1 -11 -6 -19 -11 -18 -14 2 -61
-34 -54 -41 3 -4 21 4 40 17 23 15 34 31 36 50 2 24 -5 39 -8 20z"/>
<path d="M2853 4530 c0 -41 2 -58 4 -37 2 20 2 54 0 75 -2 20 -4 3 -4 -38z"/>
<path d="M2990 4580 c0 -5 5 -10 11 -10 5 0 7 -4 4 -10 -3 -5 -1 -10 4 -10 13
0 13 3 5 24 -7 18 -24 22 -24 6z"/>
<path d="M3505 4560 c-4 -17 -5 -34 -2 -36 2 -3 7 10 11 27 8 42 0 50 -9 9z"/>
<path d="M3530 4579 c0 -4 11 -14 25 -23 21 -14 24 -14 19 -1 -4 8 -11 15 -18
15 -6 0 -4 5 4 10 12 7 10 9 -8 7 -12 0 -22 -4 -22 -8z"/>
<path d="M3643 4572 c1 -14 5 -18 11 -12 7 7 6 14 -1 21 -9 9 -12 7 -10 -9z"/>
<path d="M3360 4570 c-13 -8 -12 -10 3 -10 9 0 17 5 17 10 0 12 -1 12 -20 0z"/>
<path d="M3397 4569 c7 -7 15 -10 18 -7 3 3 -2 9 -12 12 -14 6 -15 5 -6 -5z"/>
<path d="M3452 4555 c-8 -16 -23 -28 -42 -31 -16 -4 -30 -10 -30 -14 0 -9 37
0 61 15 9 6 20 20 23 33 10 30 2 28 -12 -3z"/>
<path d="M3013 4533 c18 -5 24 -23 7 -23 -5 0 -10 -5 -10 -11 0 -6 5 -7 13 -2
6 4 20 6 30 5 17 -3 17 -3 0 17 -9 12 -27 20 -38 20 -17 -1 -17 -2 -2 -6z"/>
<path d="M3149 4528 c-6 -23 -7 -48 -1 -52 4 -2 7 9 7 25 1 24 -2 38 -6 27z"/>
<path d="M3706 4522 c-10 -16 9 -30 21 -17 10 10 9 14 -2 19 -8 3 -16 2 -19
-2z"/>
<path d="M3758 4513 c7 -3 16 -2 19 1 4 3 -2 6 -13 5 -11 0 -14 -3 -6 -6z"/>
<path d="M3491 4494 c0 -11 3 -14 6 -6 3 7 2 16 -1 19 -3 4 -6 -2 -5 -13z"/>
<path d="M2989 4486 c-1 -3 -2 -9 -3 -13 -7 -31 -31 -103 -36 -103 -3 0 -5
-37 -4 -82 0 -48 4 -81 10 -78 5 3 8 37 6 75 -2 39 1 81 6 95 6 14 17 42 26
62 10 23 12 39 6 43 -6 3 -11 4 -11 1z"/>
<path d="M3772 4460 c0 -19 2 -27 5 -17 2 9 2 25 0 35 -3 9 -5 1 -5 -18z"/>
<path d="M3060 4476 c0 -3 9 -10 20 -16 11 -6 20 -8 20 -6 0 3 -9 10 -20 16
-11 6 -20 8 -20 6z"/>
<path d="M3453 4456 c-4 -5 -1 -6 7 -1 10 6 12 2 6 -16 -16 -59 -15 -70 3 -24
18 47 25 47 22 0 -2 -17 0 -17 8 -5 6 8 11 25 11 37 0 18 -5 22 -26 21 -14 -2
-28 -7 -31 -12z"/>
<path d="M3060 4446 c0 -2 7 -7 16 -10 8 -3 12 -2 9 4 -6 10 -25 14 -25 6z"/>
<path d="M3581 4432 c-1 -12 -8 -34 -17 -48 -13 -18 -14 -28 -6 -36 8 -8 16
-5 31 13 16 19 17 25 5 27 -8 2 -12 8 -8 13 3 5 11 6 17 2 9 -5 9 -3 1 8 -6 8
-14 21 -17 29 -3 10 -6 7 -6 -8z"/>
<path d="M2851 4404 c0 -11 3 -14 6 -6 3 7 2 16 -1 19 -3 4 -6 -2 -5 -13z"/>
<path d="M3782 4390 c0 -14 2 -19 5 -12 2 6 2 18 0 25 -3 6 -5 1 -5 -13z"/>
<path d="M3046 4384 c-5 -14 -4 -15 9 -4 17 14 19 20 6 20 -5 0 -12 -7 -15
-16z"/>
<path d="M3472 4370 c-10 -16 -10 -24 0 -40 7 -11 16 -20 20 -20 5 0 9 -12 9
-27 2 -25 2 -25 6 -5 3 13 -3 34 -12 48 -9 14 -13 33 -10 44 8 26 3 25 -13 0z"/>
<path d="M2854 4025 c0 -192 1 -333 3 -312 2 20 8 37 14 37 5 0 9 5 9 11 0 5
-4 7 -10 4 -6 -4 -11 103 -13 302 l-2 308 -1 -350z"/>
<path d="M3023 4354 c-9 -4 -9 -13 -2 -30 5 -14 9 -40 9 -57 0 -18 4 -38 9
-45 5 -9 8 17 7 62 0 42 -3 76 -6 75 -3 0 -10 -3 -17 -5z"/>
<path d="M3216 4324 c-4 -14 -5 -28 -3 -31 3 -2 8 8 11 23 4 14 5 28 3 31 -3
2 -8 -8 -11 -23z"/>
<path d="M3457 4313 c3 -10 10 -23 14 -28 4 -6 9 -24 11 -40 3 -27 0 -30 -22
-27 -14 1 -35 14 -47 28 -27 30 -31 16 -5 -16 9 -12 33 -25 52 -29 41 -8 51
-38 25 -77 -9 -14 -11 -23 -4 -22 6 2 14 -3 17 -11 2 -8 0 -11 -6 -7 -17 10
-23 -10 -7 -24 7 -6 11 -19 8 -28 -5 -14 -3 -15 8 -4 10 9 10 15 1 24 -9 9 -8
16 3 28 12 13 14 30 9 74 -4 31 -10 56 -15 56 -5 0 -6 6 -3 14 5 14 -30 106
-40 106 -3 0 -3 -8 1 -17z"/>
<path d="M3345 4292 c3 -25 -2 -38 -21 -57 -14 -14 -33 -25 -42 -25 -24 0 -62
28 -62 46 0 19 -10 18 -27 -3 -14 -17 -14 -17 -9 0 8 27 1 21 -29 -24 -15 -23
-22 -38 -16 -35 6 4 11 2 11 -4 0 -6 -7 -13 -15 -16 -8 -4 -13 -10 -10 -14 6
-10 -54 -48 -93 -60 l-27 -8 32 -1 c18 -1 42 4 55 10 25 12 98 106 98 126 0
17 18 16 36 -1 12 -12 12 -20 -1 -56 -19 -55 -19 -121 1 -146 15 -18 15 -18 5
3 -14 28 -14 73 0 129 11 41 14 44 44 44 25 0 40 8 59 31 27 32 32 54 16 79
-7 11 -8 6 -5 -18z m-179 -80 c-18 -16 -18 -16 -6 6 6 13 14 21 18 18 3 -4 -2
-14 -12 -24z"/>
<path d="M3521 4259 c-6 -18 -9 -34 -7 -36 2 -2 9 10 15 28 6 18 9 34 7 36 -2
2 -9 -10 -15 -28z"/>
<path d="M3618 4278 c-9 -23 27 -47 78 -53 22 -2 30 -2 19 1 -44 12 -84 35
-87 52 -3 16 -4 16 -10 0z"/>
<path d="M3862 4226 c7 -8 15 -12 17 -11 5 6 -10 25 -20 25 -5 0 -4 -6 3 -14z"/>
<path d="M3531 4214 c0 -11 3 -14 6 -6 3 7 2 16 -1 19 -3 4 -6 -2 -5 -13z"/>
<path d="M3600 4206 c0 -8 9 -21 20 -29 11 -8 17 -17 12 -22 -4 -5 -1 -5 6 -1
9 6 7 14 -8 37 -24 33 -30 36 -30 15z"/>
<path d="M3582 4195 c-1 -11 12 -36 28 -55 17 -19 30 -30 30 -24 0 6 -11 21
-24 33 -14 13 -27 33 -29 45 -4 19 -4 19 -5 1z"/>
<path d="M3823 4200 c-15 -6 -20 -15 -16 -29 4 -14 1 -21 -9 -21 -11 0 -15
-14 -17 -57 -2 -60 4 -69 11 -18 7 46 37 112 52 112 12 0 17 -19 28 -114 1 -7
5 -13 10 -13 4 0 7 -4 6 -9 -2 -5 2 -9 7 -10 6 -1 10 10 10 23 1 14 -2 23 -6
20 -8 -5 -19 32 -19 67 0 35 -28 59 -57 49z"/>
<path d="M3522 4170 c0 -14 2 -19 5 -12 2 6 2 18 0 25 -3 6 -5 1 -5 -13z"/>
<path d="M3891 4174 c0 -11 3 -14 6 -6 3 7 2 16 -1 19 -3 4 -6 -2 -5 -13z"/>
<path d="M3166 4146 c-9 -19 -15 -47 -15 -63 1 -26 2 -25 8 7 4 19 15 47 25
63 10 15 14 27 8 27 -5 0 -17 -15 -26 -34z"/>
<path d="M2962 4146 c1 -14 6 -22 11 -19 5 3 6 11 3 18 -3 8 0 16 7 19 7 2 4
5 -5 5 -13 1 -17 -6 -16 -23z"/>
<path d="M3186 4120 c-9 -22 -16 -46 -15 -53 0 -6 9 10 20 37 11 27 18 50 16
53 -3 2 -12 -14 -21 -37z"/>
<path d="M3570 4152 c0 -4 10 -13 23 -21 22 -14 22 -14 3 8 -20 22 -26 25 -26
13z"/>
<path d="M2984 4124 c-4 -15 -2 -30 6 -37 10 -9 11 -9 5 2 -4 8 -2 17 6 22 10
6 10 9 2 9 -7 0 -10 7 -7 15 4 8 3 15 0 15 -3 0 -9 -12 -12 -26z"/>
<path d="M3570 4125 c0 -3 20 -25 45 -49 26 -26 45 -53 45 -66 0 -31 18 -60
38 -60 12 0 13 3 5 8 -7 4 -16 23 -19 42 -5 24 -4 31 5 26 6 -4 9 -11 7 -15
-3 -4 0 -13 5 -21 7 -12 8 -11 6 5 -8 41 -19 55 -46 55 -14 0 -21 4 -15 8 7 4
-5 19 -32 40 -24 18 -44 30 -44 27z"/>
<path d="M4083 4075 c0 -27 2 -38 4 -22 2 15 2 37 0 50 -2 12 -4 0 -4 -28z"/>
<path d="M3102 4066 c-3 -37 14 -58 25 -31 3 10 1 20 -6 24 -6 4 -9 15 -5 24
3 9 2 17 -3 17 -5 0 -10 -15 -11 -34z"/>
<path d="M3521 4053 c0 -18 -7 -36 -13 -40 -7 -4 -13 -15 -13 -23 0 -8 -15
-25 -34 -37 -41 -28 -29 -31 15 -4 34 21 58 75 51 113 -3 17 -5 15 -6 -9z"/>
<path d="M3370 4066 c0 -2 9 -6 20 -9 11 -3 18 -1 14 4 -5 9 -34 13 -34 5z"/>
<path d="M3559 4049 c-4 -18 0 -30 12 -37 10 -6 19 -24 22 -39 4 -27 4 -27 6
4 0 17 -5 38 -13 45 -8 8 -16 23 -18 34 -3 15 -5 14 -9 -7z"/>
<path d="M3794 4026 c-3 -21 -4 -39 -1 -42 2 -3 8 11 11 32 4 20 5 38 2 41 -2
3 -8 -11 -12 -31z"/>
<path d="M3020 4030 c0 -5 4 -10 9 -10 6 0 13 5 16 10 3 6 -1 10 -9 10 -9 0
-16 -4 -16 -10z"/>
<path d="M3818 4018 c-3 -15 -1 -25 3 -22 5 3 9 -2 9 -10 0 -8 4 -17 10 -21 6
-3 6 5 0 22 -4 15 -10 35 -13 43 -2 9 -6 4 -9 -12z"/>
<path d="M3916 4032 c-3 -4 4 -9 15 -9 23 -2 25 3 4 10 -8 4 -16 3 -19 -1z"/>
<path d="M4020 4031 c0 -5 6 -11 13 -14 16 -6 -13 -62 -32 -62 -7 0 -23 -13
-36 -29 -12 -16 -28 -25 -34 -22 -6 4 -11 2 -11 -3 0 -6 -13 -11 -29 -11 -24
0 -29 -5 -34 -33 -3 -20 2 -55 14 -88 10 -30 18 -68 19 -85 0 -39 -27 -131
-42 -140 -8 -5 -9 -1 -4 11 4 10 -12 -2 -34 -28 -27 -31 -58 -53 -93 -66 -29
-11 -45 -20 -37 -20 29 -1 97 37 128 70 18 19 32 29 32 22 0 -40 -144 -113
-224 -113 -46 0 -119 22 -104 31 8 5 2 8 -17 6 -17 -1 -30 3 -30 10 0 14 -105
93 -105 79 0 -3 19 -18 41 -33 23 -15 36 -29 30 -31 -6 -2 -11 -9 -11 -14 0
-6 3 -9 6 -5 3 3 26 -5 51 -19 25 -13 55 -24 67 -24 13 0 17 -3 9 -8 -6 -4 23
-6 65 -4 79 3 154 23 184 49 9 9 22 12 30 7 7 -4 10 -4 6 1 -5 5 3 23 16 40
56 72 70 199 32 273 -7 15 -11 41 -9 59 4 28 10 32 44 38 43 7 124 65 134 95
8 26 -2 57 -20 64 -8 3 -15 1 -15 -3z m-20 -85 c0 -2 -8 -10 -17 -17 -16 -13
-17 -12 -4 4 13 16 21 21 21 13z"/>
<path d="M3125 4000 c-3 -5 -1 -10 4 -10 6 0 11 5 11 10 0 6 -2 10 -4 10 -3 0
-8 -4 -11 -10z"/>
<path d="M3557 3985 c-4 -9 -3 -13 2 -10 6 3 8 -7 6 -22 -5 -40 -5 -40 -16
-18 -9 20 -9 20 -6 0 3 -26 57 -33 57 -7 0 15 -2 15 -10 2 -7 -12 -10 -8 -10
15 0 39 -15 64 -23 40z"/>
<path d="M3165 3935 c-4 -31 -5 -58 -3 -61 3 -2 8 21 12 52 4 31 5 59 2 61 -2
3 -8 -21 -11 -52z"/>
<path d="M3274 3972 c27 -31 146 -65 146 -42 0 6 -4 9 -8 6 -4 -2 -14 -1 -21
4 -9 5 0 10 27 15 23 3 46 13 53 21 14 18 8 18 -33 0 -62 -26 -98 -35 -98 -25
0 6 -4 8 -8 5 -5 -3 -24 4 -43 16 l-34 20 19 -20z"/>
<path d="M4067 3977 c-3 -7 1 -24 9 -38 7 -13 13 -19 13 -14 1 6 -3 17 -9 25
-6 9 -5 17 2 21 7 4 7 9 0 13 -5 3 -12 0 -15 -7z"/>
<path d="M3085 3970 c-3 -5 -1 -10 4 -10 6 0 11 5 11 10 0 6 -2 10 -4 10 -3 0
-8 -4 -11 -10z"/>
<path d="M3115 3958 c4 -22 2 -26 -10 -22 -8 4 -15 2 -15 -4 0 -15 30 -8 41 9
7 11 9 10 10 -6 0 -11 3 -15 5 -9 3 6 0 22 -5 35 -9 21 -10 22 -11 4 l-1 -20
-10 20 c-8 17 -8 15 -4 -7z"/>
<path d="M3621 3964 c0 -11 3 -14 6 -6 3 7 2 16 -1 19 -3 4 -6 -2 -5 -13z"/>
<path d="M3884 3968 c-4 -5 -3 -12 0 -15 3 -4 6 -1 6 6 0 7 4 10 9 6 5 -3 12
-2 15 3 3 5 -2 9 -10 9 -8 0 -17 -4 -20 -9z"/>
<path d="M3929 3968 c-5 -17 -6 -38 -2 -38 3 0 16 9 30 20 14 11 21 20 15 20
-6 0 -14 -4 -17 -10 -3 -5 -11 -10 -16 -10 -6 0 -7 5 -4 10 3 6 4 10 1 10 -3
0 -6 -1 -7 -2z"/>
<path d="M3740 3945 c0 -5 5 -17 10 -25 5 -8 10 -10 10 -5 0 6 -5 17 -10 25
-5 8 -10 11 -10 5z"/>
<path d="M3846 3939 c2 -4 -1 -29 -7 -54 -10 -40 -14 -45 -33 -39 -21 6 -21 6
-1 -10 22 -17 36 -20 33 -8 -1 4 2 24 6 45 6 24 14 37 25 37 13 0 13 2 2 9 -7
5 -11 13 -8 18 3 5 0 10 -8 10 -8 0 -12 -4 -9 -8z"/>
<path d="M3517 3926 c-3 -8 -3 -25 0 -38 3 -17 2 -20 -5 -9 -8 11 -9 -2 -6
-41 4 -52 2 -57 -18 -61 l-23 -4 23 -2 c24 -1 28 -28 7 -43 -6 -5 -5 -8 4 -8
11 0 11 -3 1 -15 -11 -13 -10 -14 4 -9 12 4 16 0 16 -15 0 -45 61 -113 119
-132 18 -6 56 -9 83 -7 103 10 155 114 113 223 -17 46 -47 75 -75 75 -8 -1 -3
-7 12 -16 56 -30 82 -126 52 -189 -26 -55 -67 -77 -136 -72 -67 4 -121 40
-146 96 -18 42 -26 190 -12 227 7 18 7 23 -1 18 -8 -4 -9 0 -4 15 7 23 0 29
-8 7z"/>
<path d="M3612 3920 c0 -14 2 -19 5 -12 2 6 2 18 0 25 -3 6 -5 1 -5 -13z"/>
<path d="M3814 3929 c-3 -6 -1 -16 5 -22 8 -8 11 -5 11 11 0 24 -5 28 -16 11z"/>
<path d="M3180 3897 c0 -20 4 -38 9 -42 6 -3 7 10 4 32 -8 50 -13 55 -13 10z"/>
<path d="M3208 3905 c-3 -14 1 -30 8 -36 10 -8 14 -8 14 0 0 6 -4 11 -9 11 -4
0 -6 11 -3 25 2 14 2 25 -1 25 -2 0 -7 -11 -9 -25z"/>
<path d="M3470 3900 c6 -44 -1 -79 -17 -83 -15 -4 -14 -5 2 -6 12 0 27 -7 35
-13 12 -11 12 -10 2 4 -7 9 -12 34 -11 57 2 22 -1 44 -5 48 -4 5 -7 1 -6 -7z"/>
<path d="M3116 3883 c-6 -14 -5 -15 5 -6 7 7 10 15 7 18 -3 3 -9 -2 -12 -12z"/>
<path d="M3300 3887 c0 -8 -11 -20 -25 -27 -14 -7 -25 -17 -25 -22 0 -12 14
-10 28 4 8 8 15 8 24 0 10 -8 13 -3 13 24 0 19 -3 34 -7 34 -5 0 -8 -6 -8 -13z"/>
<path d="M3797 3880 c-3 -13 0 -20 9 -20 15 0 19 26 5 34 -5 3 -11 -3 -14 -14z"/>
<path d="M4079 3888 c-2 -7 -2 -238 1 -513 l5 -500 3 513 c1 281 0 512 -2 512
-2 0 -5 -6 -7 -12z"/>
<path d="M3563 3874 c-4 -10 -8 -38 -8 -61 0 -22 -3 -39 -7 -36 -5 2 -8 -11
-7 -29 1 -31 1 -32 9 -8 7 21 8 22 9 5 1 -11 10 -40 21 -64 23 -50 20 -68 -4
-24 -8 15 -15 23 -16 16 0 -15 58 -83 72 -83 6 0 0 9 -13 21 -16 14 -19 19 -7
15 14 -4 13 1 -5 32 -18 30 -22 54 -24 130 -1 95 -7 120 -20 86z"/>
<path d="M3684 3878 c2 -7 -3 -21 -12 -30 -11 -13 -19 -15 -33 -7 -15 7 -19 6
-19 -5 0 -10 6 -13 17 -9 16 6 16 5 0 -17 -9 -14 -17 -29 -17 -35 0 -5 9 5 20
23 11 18 34 39 50 46 17 7 27 15 23 19 -3 4 8 7 26 7 19 0 30 -4 26 -10 -3 -5
-1 -10 4 -10 21 0 11 21 -15 30 -16 7 -32 7 -44 0 -12 -7 -20 -6 -23 0 -3 6
-4 5 -3 -2z"/>
<path d="M3972 3874 c-12 -8 -27 -12 -34 -8 -7 4 -8 3 -4 -4 10 -16 17 -15 46
8 30 23 24 27 -8 4z"/>
<path d="M4018 3883 c7 -3 16 -2 19 1 4 3 -2 6 -13 5 -11 0 -14 -3 -6 -6z"/>
<path d="M3143 3855 c0 -8 6 -16 14 -19 11 -4 11 -1 3 14 -13 24 -17 25 -17 5z"/>
<path d="M3890 3851 c0 -6 4 -13 10 -16 6 -3 7 1 4 9 -7 18 -14 21 -14 7z"/>
<path d="M3210 3840 c0 -5 5 -10 10 -10 6 0 10 -5 10 -11 0 -6 7 -17 15 -25
18 -19 19 -15 2 22 -12 28 -37 44 -37 24z"/>
<path d="M3406 3838 c3 -4 1 -8 -4 -8 -5 0 -9 -7 -9 -15 0 -8 3 -13 5 -10 3 3
11 -3 19 -13 11 -15 12 -14 3 11 -6 17 -6 27 0 27 6 0 10 4 10 8 0 5 -7 9 -15
9 -8 0 -12 -4 -9 -9z"/>
<path d="M3266 3807 c3 -10 9 -15 12 -12 3 3 0 11 -7 18 -10 9 -11 8 -5 -6z"/>
<path d="M3364 3805 c-4 -8 -3 -27 1 -42 5 -21 8 -24 16 -12 5 7 8 21 8 29 0
10 -3 9 -10 -5 -7 -16 -8 -13 -4 13 5 33 -1 43 -11 17z"/>
<path d="M3140 3801 c0 -5 -3 -17 -7 -27 -4 -11 -3 -15 4 -11 14 9 24 47 12
47 -5 0 -9 -4 -9 -9z"/>
<path d="M3170 3801 c0 -6 5 -13 10 -16 6 -3 10 -14 10 -24 0 -10 8 -25 18
-32 14 -11 15 -11 5 1 -7 8 -13 21 -13 30 1 12 4 11 17 -5 14 -18 15 -18 9 -2
-3 10 -6 21 -6 23 0 2 -7 4 -15 4 -8 0 -15 7 -15 15 0 8 -4 15 -10 15 -5 0
-10 -4 -10 -9z"/>
<path d="M3590 3784 c0 -14 4 -23 9 -19 11 6 10 45 -1 45 -4 0 -8 -12 -8 -26z"/>
<path d="M3718 3793 c6 -2 18 -2 25 0 6 3 1 5 -13 5 -14 0 -19 -2 -12 -5z"/>
<path d="M3686 3774 c-11 -28 -7 -43 14 -54 23 -12 60 -5 60 12 0 7 -5 6 -15
-2 -8 -6 -23 -9 -36 -5 -17 6 -20 12 -15 36 6 31 2 39 -8 13z"/>
<path d="M3735 3781 c-21 -5 -30 -12 -30 -26 0 -29 37 -26 52 5 12 23 18 20
13 -5 -1 -5 2 -6 6 -2 4 4 14 -3 21 -15 8 -14 12 -17 12 -8 1 34 -35 58 -74
51z"/>
<path d="M3306 3771 c-3 -5 -1 -21 6 -35 10 -23 9 -28 -8 -41 -10 -8 -14 -15
-7 -15 6 0 15 5 18 10 3 6 11 10 17 10 6 0 8 -3 5 -6 -7 -7 22 -64 38 -76 5
-4 -2 -12 -15 -17 -25 -11 -25 -11 4 -8 18 1 31 -3 34 -12 3 -8 0 -11 -7 -7
-6 4 -11 2 -11 -4 0 -7 8 -9 21 -5 15 5 19 4 15 -4 -4 -6 0 -11 9 -11 9 0 13
-4 10 -10 -4 -6 6 -10 22 -11 l28 -1 -25 -8 c-23 -7 -22 -8 10 -10 19 -1 44
-6 55 -11 15 -7 12 -8 -15 -4 -30 4 -32 4 -12 -5 13 -5 36 -7 50 -4 19 4 23 3
13 -4 -10 -7 7 -9 53 -7 87 3 93 11 14 17 -87 7 -158 40 -210 98 -24 26 -44
51 -45 56 -4 17 -50 124 -56 130 -3 3 -8 1 -11 -5z"/>
<path d="M3851 3775 c1 -19 18 -51 18 -35 0 8 -4 22 -9 30 -5 8 -9 11 -9 5z"/>
<path d="M3270 3740 c-13 -8 -12 -10 3 -10 9 0 17 5 17 10 0 12 -1 12 -20 0z"/>
<path d="M3468 3743 c7 -3 16 -2 19 1 4 3 -2 6 -13 5 -11 0 -14 -3 -6 -6z"/>
<path d="M3415 3730 c-16 -7 -17 -9 -3 -9 9 -1 20 4 23 9 7 11 7 11 -20 0z"/>
<path d="M3237 3714 c5 -13 3 -15 -7 -9 -8 5 -11 3 -8 -5 2 -7 15 -17 29 -22
20 -7 21 -6 8 4 -9 7 -14 18 -12 25 2 6 -1 14 -6 18 -7 4 -8 0 -4 -11z"/>
<path d="M3450 3720 c-13 -8 -12 -10 3 -10 9 0 17 5 17 10 0 12 -1 12 -20 0z"/>
<path d="M3276 3708 c3 -5 10 -6 15 -3 13 9 11 12 -6 12 -8 0 -12 -4 -9 -9z"/>
<path d="M3606 3693 c3 -10 11 -25 17 -34 15 -19 117 -42 143 -33 18 7 18 7
-1 -17 l-20 -24 27 24 c16 14 24 29 21 39 -5 11 -3 13 6 7 10 -6 11 -2 6 15
-4 13 -3 20 2 17 5 -4 10 0 10 8 0 22 -15 18 -22 -5 -4 -11 -11 -18 -16 -14
-5 3 -8 0 -7 -8 2 -9 -7 -12 -27 -11 -25 2 -27 1 -10 -7 16 -7 13 -9 -18 -9
-21 -1 -36 3 -33 7 2 4 -7 8 -22 7 -17 0 -30 8 -38 23 -15 30 -24 38 -18 15z"/>
<path d="M3765 3700 c-3 -6 1 -7 9 -4 18 7 21 14 7 14 -6 0 -13 -4 -16 -10z"/>
<path d="M3390 3690 c0 -6 7 -10 15 -10 8 0 15 2 15 4 0 2 -7 6 -15 10 -8 3
-15 1 -15 -4z"/>
<path d="M3440 3688 c0 -11 28 -10 35 1 3 6 -4 9 -15 8 -11 -1 -20 -5 -20 -9z"/>
<path d="M3190 3686 c0 -2 8 -10 18 -17 15 -13 16 -12 3 4 -13 16 -21 21 -21
13z"/>
<path d="M3640 3676 c0 -2 7 -7 16 -10 8 -3 12 -2 9 4 -6 10 -25 14 -25 6z"/>
<path d="M3254 3639 c6 -16 14 -29 18 -29 4 0 8 -7 8 -15 0 -8 4 -15 10 -15 5
0 6 8 3 18 -6 15 -5 15 10 3 24 -19 21 -5 -4 22 -19 20 -20 21 -13 2 8 -21 6
-21 -16 9 -10 13 -10 17 -2 12 6 -4 12 -3 12 2 0 5 -8 12 -19 15 -16 4 -17 1
-7 -24z"/>
<path d="M3470 3660 c-13 -8 -12 -10 3 -10 9 0 17 5 17 10 0 12 -1 12 -20 0z"/>
<path d="M3298 3653 c7 -3 16 -2 19 1 4 3 -2 6 -13 5 -11 0 -14 -3 -6 -6z"/>
<path d="M3418 3653 c7 -3 16 -2 19 1 4 3 -2 6 -13 5 -11 0 -14 -3 -6 -6z"/>
<path d="M3435 3630 c-3 -5 -1 -10 4 -10 6 0 11 5 11 10 0 6 -2 10 -4 10 -3 0
-8 -4 -11 -10z"/>
<path d="M3861 3628 c0 -9 -4 -25 -7 -35 -5 -17 -5 -17 6 0 6 10 9 25 7 35 -4
15 -5 15 -6 0z"/>
<path d="M3318 3623 c7 -3 16 -2 19 1 4 3 -2 6 -13 5 -11 0 -14 -3 -6 -6z"/>
<path d="M3470 3620 c-13 -8 -12 -10 3 -10 9 0 17 5 17 10 0 12 -1 12 -20 0z"/>
<path d="M3663 3614 c0 -16 13 -19 21 -5 3 5 0 11 -7 14 -8 3 -14 -1 -14 -9z"/>
<path d="M3675 3589 c-25 -5 -22 -6 18 -6 26 0 47 1 47 2 0 8 -39 10 -65 4z"/>
<path d="M3022 3581 c-11 -7 -11 -9 0 -14 9 -3 15 1 15 9 0 8 -1 14 -1 14 -1
0 -7 -4 -14 -9z"/>
<path d="M3335 3570 c3 -5 -1 -10 -9 -10 -9 0 -16 -5 -16 -10 0 -7 7 -7 20 0
17 9 20 30 4 30 -3 0 -2 -4 1 -10z"/>
<path d="M3468 3563 c6 -2 18 -2 25 0 6 3 1 5 -13 5 -14 0 -19 -2 -12 -5z"/>
<path d="M3518 3553 c7 -3 16 -2 19 1 4 3 -2 6 -13 5 -11 0 -14 -3 -6 -6z"/>
<path d="M3550 3540 c-13 -8 -13 -10 2 -10 9 0 20 5 23 10 8 13 -5 13 -25 0z"/>
<path d="M3605 3529 c-13 -5 -15 -8 -5 -8 8 -1 25 -4 38 -7 13 -4 22 -2 22 5
0 7 -5 9 -11 5 -6 -3 -14 -2 -18 3 -3 6 -15 7 -26 2z"/>
<path d="M3896 3532 c-3 -5 1 -9 9 -9 8 0 12 4 9 9 -3 4 -7 8 -9 8 -2 0 -6 -4
-9 -8z"/>
<path d="M3110 3516 c0 -2 7 -7 16 -10 8 -3 12 -2 9 4 -6 10 -25 14 -25 6z"/>
<path d="M3360 3505 c14 -17 30 -20 30 -4 0 5 -4 7 -10 4 -5 -3 -10 -1 -10 4
0 6 -5 11 -11 11 -8 0 -8 -5 1 -15z"/>
<path d="M3708 3493 c7 -3 16 -2 19 1 4 3 -2 6 -13 5 -11 0 -14 -3 -6 -6z"/>
<path d="M3548 3443 c7 -3 16 -2 19 1 4 3 -2 6 -13 5 -11 0 -14 -3 -6 -6z"/>
<path d="M3598 3433 c12 -2 30 -2 40 0 9 3 -1 5 -23 4 -22 0 -30 -2 -17 -4z"/>
<path d="M3255 3410 c3 -5 11 -10 16 -10 6 0 7 5 4 10 -3 6 -11 10 -16 10 -6
0 -7 -4 -4 -10z"/>
<path d="M3538 3383 c7 -3 16 -2 19 1 4 3 -2 6 -13 5 -11 0 -14 -3 -6 -6z"/>
<path d="M3658 3373 c7 -3 16 -2 19 1 4 3 -2 6 -13 5 -11 0 -14 -3 -6 -6z"/>
<path d="M3416 3312 c-3 -5 1 -15 8 -21 11 -10 14 -9 12 3 -3 21 -13 29 -20
18z"/>
<path d="M3655 3130 c3 -5 8 -10 11 -10 2 0 4 5 4 10 0 6 -5 10 -11 10 -5 0
-7 -4 -4 -10z"/>
<path d="M3715 3110 c4 -6 11 -8 16 -5 14 9 11 15 -7 15 -8 0 -12 -5 -9 -10z"/>
<path d="M3750 3091 c0 -6 4 -13 10 -16 6 -3 7 1 4 9 -7 18 -14 21 -14 7z"/>
<path d="M3902 2971 c-11 -7 -11 -9 0 -14 9 -3 15 1 15 9 0 8 -1 14 -1 14 -1
0 -7 -4 -14 -9z"/>
<path d="M3978 2953 c7 -3 16 -2 19 1 4 3 -2 6 -13 5 -11 0 -14 -3 -6 -6z"/>
<path d="M4069 2861 c11 -7 11 -9 0 -13 -10 -3 -10 -6 2 -10 10 -4 15 1 16 13
1 12 -5 19 -15 19 -13 0 -14 -2 -3 -9z"/>
<path d="M2058 4793 c7 -3 16 -2 19 1 4 3 -2 6 -13 5 -11 0 -14 -3 -6 -6z"/>
<path d="M2453 4784 c2 -12 0 -29 -5 -38 -5 -9 -7 -16 -4 -16 15 0 26 41 16
58 -10 15 -11 15 -7 -4z"/>
<path d="M2020 4775 c-7 -8 -20 -15 -28 -15 -13 0 -12 -3 4 -14 17 -13 20 -12
26 7 3 12 6 17 7 10 1 -6 11 -9 24 -6 21 4 22 4 3 -11 -11 -9 -15 -16 -10 -16
14 0 34 21 34 36 0 7 -10 9 -26 6 -19 -3 -25 -1 -20 7 10 16 1 14 -14 -4z"/>
<path d="M2278 4770 c-7 -11 -22 -21 -33 -21 -16 -1 -16 -2 -3 -6 9 -2 24 -15
33 -29 9 -14 21 -22 27 -18 7 4 6 9 -3 15 -11 7 -10 9 3 9 15 0 38 27 38 44 0
2 -13 1 -29 -4 -23 -6 -29 -5 -25 5 3 8 15 16 27 18 22 4 22 4 0 6 -13 0 -28
-8 -35 -19z m28 -35 c-10 -8 -24 -11 -29 -8 -6 4 -2 10 9 14 31 12 40 9 20 -6z"/>
<path d="M2097 4739 c-4 -26 0 -39 15 -54 l20 -20 -12 24 c-6 12 -10 31 -7 41
2 10 1 23 -3 30 -5 7 -9 -1 -13 -21z"/>
<path d="M1950 4753 c0 -14 19 -38 25 -32 8 8 -5 39 -16 39 -5 0 -9 -3 -9 -7z"/>
<path d="M2400 4720 c0 -11 7 -20 15 -20 8 0 15 5 15 11 0 5 -5 7 -12 3 -8 -5
-9 -2 -5 9 3 10 2 17 -3 17 -6 0 -10 -9 -10 -20z"/>
<path d="M2200 4720 c8 -5 22 -10 30 -10 13 0 13 1 0 10 -8 5 -22 10 -30 10
-13 0 -13 -1 0 -10z"/>
<path d="M2381 4695 c0 -11 6 -40 13 -65 19 -58 20 -30 2 35 -8 28 -15 41 -15
30z"/>
<path d="M2442 4690 c0 -14 2 -19 5 -12 2 6 2 18 0 25 -3 6 -5 1 -5 -13z"/>
<path d="M1930 4689 c-12 -8 -10 -9 9 -4 15 5 27 2 32 -6 13 -20 11 -39 -4
-39 -7 0 -13 -9 -14 -21 -2 -18 0 -18 19 6 36 46 4 96 -42 64z"/>
<path d="M2040 4683 c8 -3 19 -12 23 -19 4 -8 14 -14 20 -14 7 0 13 -9 14 -20
1 -11 -2 -18 -7 -15 -6 3 -7 -1 -4 -9 10 -26 27 -18 22 9 -5 22 -2 25 21 25
48 0 70 4 65 12 -3 4 -23 5 -44 2 -31 -5 -43 -2 -61 15 -13 11 -32 21 -43 20
-15 0 -17 -2 -6 -6z"/>
<path d="M2194 4674 c21 -20 20 -33 -1 -42 -16 -6 -29 -42 -16 -42 10 0 42 46
43 61 0 16 -19 39 -33 39 -5 0 -1 -7 7 -16z"/>
<path d="M2011 4656 c0 -16 -9 -39 -18 -50 -17 -21 -17 -21 6 0 16 15 21 29
18 50 l-4 29 -2 -29z"/>
<path d="M2473 4653 c1 -19 7 -33 15 -33 9 0 10 5 4 18 -5 9 -12 24 -15 32 -3
8 -4 0 -4 -17z"/>
<path d="M1696 4655 c4 -8 10 -15 15 -15 4 0 6 7 3 15 -4 8 -10 15 -15 15 -4
0 -6 -7 -3 -15z"/>
<path d="M2240 4650 c0 -5 5 -10 11 -10 5 0 7 5 4 10 -3 6 -8 10 -11 10 -2 0
-4 -4 -4 -10z"/>
<path d="M2311 4653 c0 -4 4 -17 8 -27 6 -15 9 -16 13 -5 3 8 -1 20 -8 27 -8
7 -14 9 -13 5z"/>
<path d="M2352 4630 c0 -19 2 -27 5 -17 2 9 2 25 0 35 -3 9 -5 1 -5 -18z"/>
<path d="M2282 4630 c0 -14 2 -19 5 -12 2 6 2 18 0 25 -3 6 -5 1 -5 -13z"/>
<path d="M2223 4603 c-14 -15 -18 -23 -9 -23 16 0 39 26 34 37 -1 4 -13 -2
-25 -14z"/>
<path d="M2027 4593 c-3 -5 4 -15 16 -23 21 -12 21 -12 7 6 -8 10 -15 20 -16
22 -1 2 -4 -1 -7 -5z"/>
<path d="M2260 4590 c0 -5 5 -10 11 -10 5 0 7 5 4 10 -3 6 -8 10 -11 10 -2 0
-4 -4 -4 -10z"/>
<path d="M2287 4571 c-4 -17 -3 -21 5 -13 5 5 8 16 6 23 -3 8 -7 3 -11 -10z"/>
<path d="M2350 4580 c0 -5 -22 -21 -49 -35 -71 -36 -71 -47 -1 -13 34 16 60
35 60 43 0 8 -2 15 -5 15 -3 0 -5 -4 -5 -10z"/>
<path d="M1920 4551 c0 -7 -5 -9 -12 -5 -7 5 -8 3 -3 -5 5 -9 10 -10 18 -2 6
6 8 14 4 18 -4 3 -7 1 -7 -6z"/>
<path d="M2396 4537 c3 -10 9 -15 12 -12 3 3 0 11 -7 18 -10 9 -11 8 -5 -6z"/>
<path d="M2373 4511 c-6 -10 -29 -22 -50 -26 -21 -3 -50 -18 -65 -32 -16 -16
-33 -23 -43 -19 -9 3 -13 2 -10 -4 9 -14 38 -12 54 3 12 10 13 9 7 -7 -6 -19
-6 -19 12 -3 10 9 26 17 35 17 9 0 19 5 23 12 5 7 2 9 -7 6 -8 -3 -25 -8 -39
-12 -24 -7 -24 -6 -6 8 11 9 29 16 41 16 21 0 73 45 64 55 -3 2 -10 -4 -16
-14z"/>
<path d="M1615 4490 c-3 -5 1 -10 9 -10 9 0 16 5 16 10 0 6 -4 10 -9 10 -6 0
-13 -4 -16 -10z"/>
<path d="M2741 4464 c0 -17 -9 -38 -19 -47 -22 -20 -36 -22 -27 -4 4 6 0 4 -8
-6 -8 -10 -17 -14 -18 -10 -2 5 -20 3 -39 -4 l-35 -12 42 0 c79 -1 119 30 110
87 -4 26 -4 26 -6 -4z"/>
<path d="M1725 4470 c29 -7 29 -8 5 -10 -19 -2 -20 -3 -7 -7 10 -3 26 -2 35 2
14 5 14 7 2 15 -8 6 -26 9 -40 9 -23 -1 -23 -2 5 -9z"/>
<path d="M1936 4400 c-31 -27 -54 -50 -49 -50 4 0 28 19 53 41 25 23 54 45 65
50 15 6 16 8 4 8 -9 1 -42 -21 -73 -49z"/>
<path d="M2005 4400 c-38 -25 -30 -25 20 0 22 11 33 20 25 20 -8 0 -28 -9 -45
-20z"/>
<path d="M2035 4390 c-3 -6 1 -7 9 -4 18 7 21 14 7 14 -6 0 -13 -4 -16 -10z"/>
<path d="M1978 4350 c-20 -11 -40 -25 -44 -32 -4 -6 10 -1 32 12 67 40 75 53
12 20z"/>
<path d="M2213 4313 c17 -3 43 -21 64 -44 19 -21 39 -39 43 -39 14 0 21 33 10
44 -8 8 -9 6 -5 -5 4 -10 1 -20 -6 -25 -8 -4 -10 -3 -5 5 4 6 0 14 -8 17 -9 3
-13 11 -9 17 3 5 1 7 -4 4 -6 -4 -18 2 -28 13 -12 13 -29 19 -49 19 l-31 -2
28 -4z"/>
<path d="M1920 4245 c-25 -14 -38 -25 -30 -25 16 0 80 36 80 45 0 6 2 7 -50
-20z"/>
<path d="M1934 4203 c-15 -16 -20 -31 -16 -46 6 -20 6 -21 10 -2 2 10 11 30
19 42 21 32 13 36 -13 6z"/>
<path d="M2320 4217 c0 -4 12 -25 26 -45 15 -20 24 -29 20 -19 -3 10 -6 25 -6
33 0 9 -4 13 -9 9 -6 -3 -14 3 -20 12 -6 10 -11 14 -11 10z"/>
<path d="M1668 4175 c-16 -13 -28 -31 -28 -39 0 -8 -9 -18 -20 -21 -28 -9 -25
-25 5 -23 20 2 25 8 25 30 0 29 43 68 76 68 16 0 16 -2 -3 -22 -39 -44 -58
-108 -32 -108 6 0 9 9 6 20 -3 13 0 20 9 20 8 0 14 -5 14 -12 0 -6 3 -8 7 -5
3 4 -1 15 -11 25 -15 18 -15 20 10 46 21 20 30 24 40 15 8 -6 14 -7 14 -2 0
12 -44 33 -68 33 -9 0 -29 -12 -44 -25z"/>
<path d="M1640 4180 c-9 -6 -10 -10 -3 -10 6 0 15 5 18 10 8 12 4 12 -15 0z"/>
<path d="M2255 4155 c19 -38 19 -55 -1 -83 -8 -12 -11 -22 -5 -22 14 0 31 34
31 63 0 14 -9 35 -20 48 l-20 24 15 -30z"/>
<path d="M1860 4150 c-29 -23 -25 -24 19 -9 17 6 31 15 31 20 0 15 -23 10 -50
-11z"/>
<path d="M1787 4140 c-3 -11 -1 -20 4 -20 5 0 9 9 9 20 0 11 -2 20 -4 20 -2 0
-6 -9 -9 -20z"/>
<path d="M2231 4087 c-8 -14 -11 -32 -8 -39 2 -8 -1 -25 -9 -39 -7 -13 -13
-33 -13 -44 1 -14 3 -12 9 8 5 16 14 35 20 42 7 8 9 19 5 24 -3 6 -1 20 5 31
6 12 10 26 8 31 -2 6 -10 -1 -17 -14z"/>
<path d="M2366 4071 c-3 -5 1 -11 9 -14 9 -4 12 -1 8 9 -6 16 -10 17 -17 5z"/>
<path d="M2195 4061 c-3 -5 -1 -12 5 -16 5 -3 10 1 10 9 0 18 -6 21 -15 7z"/>
<path d="M2137 4053 c-3 -5 1 -14 9 -21 12 -10 14 -10 14 2 0 17 -16 30 -23
19z"/>
<path d="M2381 3968 c-1 -37 -5 -70 -11 -73 -5 -3 -10 -11 -10 -18 0 -8 3 -8
12 1 15 15 27 111 17 137 -5 13 -8 -3 -8 -47z"/>
<path d="M2609 3963 c-13 -17 -13 -17 6 -3 11 8 22 16 24 17 2 2 0 3 -6 3 -6
0 -17 -8 -24 -17z"/>
<path d="M2576 3953 c-6 -14 -5 -15 5 -6 7 7 10 15 7 18 -3 3 -9 -2 -12 -12z"/>
<path d="M2055 3868 c4 -9 -1 -29 -10 -45 l-16 -28 6 30 c8 35 4 32 -18 -12
l-15 -32 31 13 c24 9 33 20 35 40 2 16 -2 34 -8 40 -8 8 -10 7 -5 -6z"/>
<path d="M2381 3844 c0 -11 3 -14 6 -6 3 7 2 16 -1 19 -3 4 -6 -2 -5 -13z"/>
<path d="M2422 3820 c0 -14 2 -19 5 -12 2 6 2 18 0 25 -3 6 -5 1 -5 -13z"/>
<path d="M1753 3814 c-7 -7 -9 -15 -4 -18 5 -3 14 1 20 8 15 18 0 28 -16 10z"/>
<path d="M1994 3737 c1 -15 6 -30 9 -34 11 -10 8 30 -3 47 -7 11 -8 8 -6 -13z"/>
<path d="M1950 3730 c-1 -20 -3 -22 -8 -8 -7 17 -8 17 -19 -1 -10 -15 -9 -20
2 -25 18 -7 38 18 32 41 -3 13 -5 11 -7 -7z"/>
<path d="M1860 3718 c0 -7 5 -20 10 -28 8 -12 10 -11 10 7 0 12 6 24 13 26 6
3 2 6 -10 6 -13 1 -23 -5 -23 -11z"/>
<path d="M2516 3647 c3 -10 9 -15 12 -12 3 3 0 11 -7 18 -10 9 -11 8 -5 -6z"/>
<path d="M2378 3628 c-23 -19 -49 -64 -41 -71 3 -4 16 -7 27 -6 20 1 20 1 -1
7 l-23 7 26 33 c14 18 30 29 36 26 7 -4 8 -2 4 4 -9 15 -9 15 -28 0z"/>
<path d="M2286 3574 c-4 -9 -4 -19 -1 -22 2 -3 7 3 11 12 4 9 4 19 1 22 -2 3
-7 -3 -11 -12z"/>
<path d="M2461 4564 c0 -11 3 -14 6 -6 3 7 2 16 -1 19 -3 4 -6 -2 -5 -13z"/>
<path d="M2450 4490 c0 -5 5 -10 11 -10 5 0 7 5 4 10 -3 6 -8 10 -11 10 -2 0
-4 -4 -4 -10z"/>
<path d="M2683 3120 c0 -47 2 -66 4 -42 2 23 2 61 0 85 -2 23 -4 4 -4 -43z"/>
<path d="M2813 2780 c-1 -255 2 -402 8 -380 10 39 9 641 -1 735 -4 33 -7 -127
-7 -355z"/>
<path d="M2844 3040 c0 -74 1 -105 3 -67 2 37 2 97 0 135 -2 37 -3 6 -3 -68z"/>
<path d="M2432 3120 c0 -19 2 -27 5 -17 2 9 2 25 0 35 -3 9 -5 1 -5 -18z"/>
<path d="M3440 2887 c0 -146 3 -268 8 -270 8 -6 7 521 -2 530 -3 4 -6 -113 -6
-260z"/>
<path d="M2180 3120 c0 -6 -18 -26 -40 -46 -29 -26 -40 -44 -39 -63 l2 -26 4
28 c3 18 13 31 29 37 13 5 24 16 24 24 0 10 6 13 15 10 11 -5 15 1 15 20 0 14
-2 26 -5 26 -3 0 -5 -5 -5 -10z"/>
<path d="M2333 3080 c0 -30 2 -43 4 -27 2 15 2 39 0 55 -2 15 -4 2 -4 -28z"/>
<path d="M2283 3085 c0 -22 2 -30 4 -17 2 12 2 30 0 40 -3 9 -5 -1 -4 -23z"/>
<path d="M2363 3055 c0 -38 2 -53 4 -32 2 20 2 52 0 70 -2 17 -4 1 -4 -38z"/>
<path d="M2383 3085 c0 -22 2 -30 4 -17 2 12 2 30 0 40 -3 9 -5 -1 -4 -23z"/>
<path d="M2413 3060 c0 -36 2 -50 4 -32 2 17 2 47 0 65 -2 17 -4 3 -4 -33z"/>
<path d="M3473 3045 c0 -38 2 -53 4 -32 2 20 2 52 0 70 -2 17 -4 1 -4 -38z"/>
<path d="M2313 3045 c0 -27 2 -38 4 -22 2 15 2 37 0 50 -2 12 -4 0 -4 -28z"/>
<path d="M3493 3015 c0 -44 2 -61 4 -37 2 23 2 59 0 80 -2 20 -4 1 -4 -43z"/>
<path d="M3333 3010 c0 -36 2 -50 4 -32 2 17 2 47 0 65 -2 17 -4 3 -4 -33z"/>
<path d="M3510 2987 c-3 -53 -1 -92 5 -97 7 -6 9 15 7 58 -5 119 -8 129 -12
39z"/>
<path d="M2189 3056 c-7 -7 2 -86 10 -86 4 0 5 17 3 38 -4 48 -6 54 -13 48z"/>
<path d="M2264 2960 c0 -52 1 -74 3 -47 2 26 2 68 0 95 -2 26 -3 4 -3 -48z"/>
<path d="M3353 3015 c0 -22 2 -30 4 -17 2 12 2 30 0 40 -3 9 -5 -1 -4 -23z"/>
<path d="M2591 3025 c-19 -6 -30 -14 -24 -18 15 -10 23 -88 11 -110 -9 -17 -8
-19 7 -14 9 4 21 7 26 7 4 0 6 14 3 30 -8 38 -3 38 35 -1 30 -29 31 -34 31
-115 0 -46 -4 -84 -8 -84 -4 0 -5 -25 -2 -55 7 -62 0 -81 -25 -71 -14 5 -16
17 -13 66 2 47 0 59 -10 55 -8 -3 -21 -5 -30 -5 -11 0 -13 -3 -6 -8 7 -4 14
-28 16 -54 7 -73 37 -97 72 -59 12 13 17 34 16 63 -1 24 -1 89 -1 145 1 88 3
102 19 106 13 4 12 5 -5 6 -13 0 -30 12 -39 27 -16 24 -16 26 5 40 54 38 -4
75 -78 49z m66 -21 c4 -11 -1 -22 -12 -30 -28 -21 -35 -17 -35 16 0 23 4 30
20 30 11 0 23 -7 27 -16z"/>
<path d="M3053 2970 c-18 -39 -28 -70 -23 -70 5 0 12 9 15 21 9 28 49 22 53
-8 2 -13 9 -23 16 -23 9 0 9 17 -3 75 -9 41 -18 75 -21 75 -3 -1 -19 -32 -37
-70z m37 -6 c0 -8 -7 -14 -15 -14 -17 0 -18 2 -9 24 7 18 24 12 24 -10z"/>
<path d="M3175 2956 c0 -70 2 -76 23 -81 41 -10 82 27 82 74 0 28 -40 68 -75
75 l-30 6 0 -74z m63 42 c13 -13 16 -77 4 -94 -4 -6 -15 -13 -24 -17 -16 -6
-18 1 -18 58 0 66 10 81 38 53z"/>
<path d="M2475 2997 c-29 -12 -30 -13 -30 -82 l0 -71 53 15 c46 13 52 17 51
40 0 26 0 26 -9 4 -5 -13 -14 -23 -19 -23 -5 0 -16 -3 -25 -6 -13 -5 -16 1
-16 26 0 24 4 31 15 26 10 -4 15 1 15 16 0 17 -3 18 -15 8 -12 -10 -16 -9 -21
3 -9 25 6 39 37 35 20 -3 29 0 29 9 0 16 -24 16 -65 0z"/>
<path d="M2102 2960 c0 -14 2 -19 5 -12 2 6 2 18 0 25 -3 6 -5 1 -5 -13z"/>
<path d="M2310 2965 c7 -9 11 -37 8 -73 -3 -56 -2 -60 19 -60 19 0 20 3 12 27
-14 35 -15 34 27 46 83 23 67 75 -23 75 -48 0 -54 -2 -43 -15z m88 -22 c2 -14
-3 -23 -17 -28 -28 -9 -41 1 -41 31 0 22 4 25 28 22 19 -2 28 -9 30 -25z"/>
<path d="M2682 2950 c0 -14 2 -19 5 -12 2 6 2 18 0 25 -3 6 -5 1 -5 -13z"/>
<path d="M3373 2870 c0 -47 2 -66 4 -42 2 23 2 61 0 85 -2 23 -4 4 -4 -43z"/>
<path d="M2293 2860 c0 -41 2 -58 4 -37 2 20 2 54 0 75 -2 20 -4 3 -4 -38z"/>
<path d="M3540 2899 c0 -11 4 -18 10 -14 5 3 7 12 3 20 -7 21 -13 19 -13 -6z"/>
<path d="M2733 2855 c0 -33 2 -45 4 -27 2 18 2 45 0 60 -2 15 -4 0 -4 -33z"/>
<path d="M3582 2890 c0 -14 2 -19 5 -12 2 6 2 18 0 25 -3 6 -5 1 -5 -13z"/>
<path d="M2204 2780 c0 -69 1 -97 3 -62 2 34 2 90 0 125 -2 34 -3 6 -3 -63z"/>
<path d="M3394 2815 c0 -49 1 -71 3 -48 2 23 2 64 0 90 -2 26 -3 8 -3 -42z"/>
<path d="M2112 2865 c0 -16 2 -22 5 -12 2 9 2 23 0 30 -3 6 -5 -1 -5 -18z"/>
<path d="M2392 2865 c0 -16 2 -22 5 -12 2 9 2 23 0 30 -3 6 -5 -1 -5 -18z"/>
<path d="M3625 2870 c3 -5 8 -10 11 -10 2 0 4 5 4 10 0 6 -5 10 -11 10 -5 0
-7 -4 -4 -10z"/>
<path d="M3680 2864 c0 -12 6 -27 14 -33 18 -15 17 3 -2 34 -11 20 -11 20 -12
-1z"/>
<path d="M2022 2850 c0 -14 2 -19 5 -12 2 6 2 18 0 25 -3 6 -5 1 -5 -13z"/>
<path d="M2040 2845 c0 -17 -7 -29 -22 -35 -13 -5 -16 -9 -8 -9 8 0 20 3 26 7
14 9 24 62 13 62 -5 0 -9 -11 -9 -25z"/>
<path d="M2071 2854 c0 -11 3 -14 6 -6 3 7 2 16 -1 19 -3 4 -6 -2 -5 -13z"/>
<path d="M2177 2851 c-2 -10 -1 -25 4 -32 6 -10 9 -4 9 19 0 36 -5 42 -13 13z"/>
<path d="M2844 2685 c0 -104 2 -146 3 -92 2 54 2 139 0 190 -1 51 -3 7 -3 -98z"/>
<path d="M3294 2775 c0 -49 1 -71 3 -48 2 23 2 64 0 90 -2 26 -3 8 -3 -42z"/>
<path d="M3720 2851 c0 -6 4 -13 10 -16 6 -3 7 1 4 9 -7 18 -14 21 -14 7z"/>
<path d="M3585 2841 c22 -4 50 -12 62 -19 12 -7 25 -12 30 -12 27 2 -68 39
-97 38 l-35 -1 40 -6z"/>
<path d="M1800 2826 c-5 -5 -10 -18 -10 -28 0 -17 10 -22 39 -19 7 2 10 -2 6
-9 -6 -9 -2 -9 13 -1 17 9 21 8 25 -7 4 -13 5 -11 6 6 1 18 -4 22 -26 22 -16
0 -35 4 -43 10 -13 8 -13 10 0 14 8 3 26 7 40 8 22 3 22 4 -7 9 -18 3 -37 1
-43 -5z"/>
<path d="M3323 2775 c0 -38 2 -53 4 -32 2 20 2 52 0 70 -2 17 -4 1 -4 -38z"/>
<path d="M3755 2830 c4 -6 11 -8 16 -5 14 9 11 15 -7 15 -8 0 -12 -5 -9 -10z"/>
<path d="M2122 2762 c-2 -57 -1 -62 14 -48 10 11 14 29 11 58 l-4 43 -3 -45
-3 -45 -7 50 -7 50 -1 -63z"/>
<path d="M2342 2800 c0 -14 2 -19 5 -12 2 6 2 18 0 25 -3 6 -5 1 -5 -13z"/>
<path d="M3343 2770 c0 -30 2 -43 4 -27 2 15 2 39 0 55 -2 15 -4 2 -4 -28z"/>
<path d="M3775 2810 c-13 -6 -15 -9 -5 -9 8 0 22 4 30 9 18 12 2 12 -25 0z"/>
<path d="M3698 2803 c6 -2 18 -2 25 0 6 3 1 5 -13 5 -14 0 -19 -2 -12 -5z"/>
<path d="M1960 2790 c-8 -5 -10 -10 -5 -10 6 0 17 5 25 10 8 5 11 10 5 10 -5
0 -17 -5 -25 -10z"/>
<path d="M2163 2745 c0 -33 2 -45 4 -27 2 18 2 45 0 60 -2 15 -4 0 -4 -33z"/>
<path d="M3413 2730 c0 -41 2 -58 4 -37 2 20 2 54 0 75 -2 20 -4 3 -4 -38z"/>
<path d="M2732 2765 c0 -16 2 -22 5 -12 2 9 2 23 0 30 -3 6 -5 -1 -5 -18z"/>
<path d="M2183 2725 c0 -33 2 -45 4 -27 2 18 2 45 0 60 -2 15 -4 0 -4 -33z"/>
<path d="M2372 2750 c0 -19 2 -27 5 -17 2 9 2 25 0 35 -3 9 -5 1 -5 -18z"/>
<path d="M3263 2745 c0 -22 2 -30 4 -17 2 12 2 30 0 40 -3 9 -5 -1 -4 -23z"/>
<path d="M2323 2725 c0 -22 2 -30 4 -17 2 12 2 30 0 40 -3 9 -5 -1 -4 -23z"/>
<path d="M2273 2695 c0 -27 2 -38 4 -22 2 15 2 37 0 50 -2 12 -4 0 -4 -28z"/>
<path d="M2749 2725 c-4 -5 -14 -35 -24 -65 -10 -30 -22 -61 -28 -67 -7 -9 -5
-13 7 -13 9 0 16 8 16 20 0 13 7 20 20 20 15 0 20 -7 20 -25 0 -19 5 -25 21
-25 12 0 17 4 14 11 -4 6 -15 43 -24 82 -9 40 -19 68 -22 62z m4 -75 c3 -12 0
-20 -8 -20 -8 0 -11 8 -8 20 3 11 7 20 8 20 1 0 5 -9 8 -20z"/>
<path d="M2929 2654 c-19 -56 -22 -74 -12 -74 7 0 12 3 12 8 -1 4 -1 15 0 25
2 28 45 18 49 -10 2 -14 10 -23 22 -23 17 0 16 4 -6 58 -13 31 -24 62 -24 69
0 36 -19 13 -41 -53z m29 -13 c-15 -5 -21 7 -13 26 7 17 8 17 15 -2 4 -11 3
-22 -2 -24z"/>
<path d="M3048 2680 c2 -22 -1 -53 -6 -70 -11 -29 -10 -30 18 -30 15 0 35 -3
43 -6 10 -3 20 3 27 15 10 20 9 20 -14 10 -43 -20 -53 -8 -46 60 5 51 3 61
-10 61 -12 0 -15 -9 -12 -40z"/>
<path d="M3342 2690 c0 -14 2 -19 5 -12 2 6 2 18 0 25 -3 6 -5 1 -5 -13z"/>
<path d="M3150 2685 c-8 -10 -9 -15 -2 -15 6 0 14 5 17 10 3 6 11 10 17 10 15
0 1 -112 -15 -122 -7 -5 0 -8 18 -8 l30 0 -3 60 c-3 49 -1 60 12 60 8 0 18 -5
21 -10 9 -14 25 -3 19 13 -7 19 -99 20 -114 2z"/>
<path d="M2492 2648 c5 -24 7 -58 4 -76 -5 -31 -3 -32 22 -26 25 6 72 49 72
67 0 4 -7 23 -14 42 -14 32 -19 35 -54 35 l-40 0 10 -42z m58 13 c14 -27 13
-64 -4 -87 -19 -25 -23 -19 -31 49 -6 48 -4 57 9 57 8 0 20 -9 26 -19z"/>
<path d="M3296 2650 c-9 -22 -16 -46 -16 -52 0 -6 -7 -20 -17 -30 -15 -17 -15
-18 4 -18 17 0 22 9 27 45 4 25 12 45 18 45 6 0 8 -11 6 -24 -3 -15 0 -27 8
-30 8 -3 14 -12 14 -21 0 -8 9 -15 20 -15 19 0 19 2 6 23 -7 12 -19 40 -26 62
-18 58 -25 61 -44 15z"/>
<path d="M3363 2650 c0 -25 2 -35 4 -22 2 12 2 32 0 45 -2 12 -4 2 -4 -23z"/>
<path d="M2297 2673 c-2 -5 -10 -26 -17 -48 -7 -22 -19 -50 -26 -62 -13 -20
-13 -23 1 -23 8 0 15 8 15 18 0 25 7 31 31 25 12 -3 19 -14 19 -29 0 -17 6
-24 20 -24 17 0 19 4 11 18 -5 9 -14 43 -21 75 -10 52 -22 69 -33 50z m13 -58
c0 -8 -4 -15 -10 -15 -5 0 -10 7 -10 15 0 8 5 15 10 15 6 0 10 -7 10 -15z"/>
<path d="M2375 2605 c0 -64 2 -75 17 -75 14 0 16 6 12 33 l-5 32 21 -27 c12
-16 29 -28 38 -28 11 0 13 3 6 8 -6 4 -16 17 -22 28 -9 17 -8 25 4 35 8 7 14
24 12 38 -3 23 -8 26 -43 29 l-40 3 0 -76z m60 35 c0 -16 -6 -26 -17 -28 -14
-3 -18 3 -18 28 0 25 4 31 18 28 11 -2 17 -12 17 -28z"/>
<path d="M2173 2590 c0 -41 2 -58 4 -37 2 20 2 54 0 75 -2 20 -4 3 -4 -38z"/>
<path d="M2213 2595 c0 -33 2 -45 4 -27 2 18 2 45 0 60 -2 15 -4 0 -4 -33z"/>
<path d="M2132 2588 c-1 -32 1 -58 6 -58 4 0 5 -46 4 -101 -3 -82 -1 -100 10
-97 9 3 13 25 14 74 l1 69 -7 -65 c-6 -47 -7 -27 -5 75 1 77 -1 120 -4 95 l-5
-45 -6 55 -7 55 -1 -57z"/>
<path d="M2193 2585 c0 -27 2 -38 4 -22 2 15 2 37 0 50 -2 12 -4 0 -4 -28z"/>
<path d="M3577 2623 c-4 -3 -7 -11 -7 -17 0 -6 5 -5 12 2 6 6 9 14 7 17 -3 3
-9 2 -12 -2z"/>
<path d="M1900 2584 c0 -11 -8 -14 -32 -12 -27 2 -33 -1 -34 -17 -1 -13 0 -14
3 -4 3 13 11 15 39 9 31 -7 34 -6 34 16 0 13 -2 24 -5 24 -3 0 -5 -7 -5 -16z"/>
<path d="M2082 2580 c0 -14 2 -19 5 -12 2 6 2 18 0 25 -3 6 -5 1 -5 -13z"/>
<path d="M3436 2496 c3 -55 7 -102 9 -105 3 -2 11 1 17 7 7 7 13 50 14 110 l2
97 -7 -97 c-8 -106 -17 -132 -23 -69 -2 23 0 41 4 41 5 0 7 28 6 63 l-1 62 -7
-60 -6 -60 -6 55 c-3 30 -4 10 -2 -44z"/>
<path d="M3600 2590 c0 -5 5 -10 10 -10 6 0 10 5 10 10 0 6 -4 10 -10 10 -5 0
-10 -4 -10 -10z"/>
<path d="M1939 2547 c-3 -36 -1 -46 9 -42 8 3 21 5 30 6 11 0 12 2 5 6 -7 2
-13 12 -13 22 0 9 -6 26 -14 36 -12 17 -14 15 -17 -28z"/>
<path d="M3491 2574 c0 -11 3 -14 6 -6 3 7 2 16 -1 19 -3 4 -6 -2 -5 -13z"/>
<path d="M3516 2575 c4 -8 8 -15 10 -15 2 0 4 7 4 15 0 8 -4 15 -10 15 -5 0
-7 -7 -4 -15z"/>
<path d="M3541 2574 c0 -11 3 -14 6 -6 3 7 2 16 -1 19 -3 4 -6 -2 -5 -13z"/>
<path d="M3671 2579 c-1 -9 6 -19 14 -23 9 -3 15 0 15 10 0 8 -4 13 -9 10 -5
-4 -12 0 -14 6 -4 8 -6 7 -6 -3z"/>
<path d="M2051 2564 c0 -12 -12 -25 -28 -31 l-28 -12 30 6 c38 7 37 7 32 35
-4 20 -4 20 -6 2z"/>
<path d="M3610 2550 c30 -11 59 -20 65 -20 16 1 -88 40 -105 40 -8 -1 10 -10
40 -20z"/>
<path d="M3730 2566 c0 -2 7 -6 15 -10 8 -3 15 -1 15 4 0 6 -7 10 -15 10 -8 0
-15 -2 -15 -4z"/>
<path d="M3770 2545 c-32 -18 -25 -18 25 0 22 8 31 14 20 14 -11 0 -31 -6 -45
-14z"/>
<path d="M1850 2529 c0 -5 9 -9 19 -9 11 0 27 -8 36 -17 16 -16 17 -15 14 2
-4 19 -69 42 -69 24z"/>
<path d="M3223 2470 c0 -41 2 -58 4 -37 2 20 2 54 0 75 -2 20 -4 3 -4 -38z"/>
<path d="M2223 2485 c0 -27 2 -38 4 -22 2 15 2 37 0 50 -2 12 -4 0 -4 -28z"/>
<path d="M3253 2460 c0 -41 2 -58 4 -37 2 20 2 54 0 75 -2 20 -4 3 -4 -38z"/>
<path d="M3283 2455 c0 -44 2 -61 4 -37 2 23 2 59 0 80 -2 20 -4 1 -4 -43z"/>
<path d="M3362 2500 c0 -19 2 -27 5 -17 2 9 2 25 0 35 -3 9 -5 1 -5 -18z"/>
<path d="M3708 2523 c7 -3 16 -2 19 1 4 3 -2 6 -13 5 -11 0 -14 -3 -6 -6z"/>
<path d="M3383 2460 c0 -36 2 -50 4 -32 2 17 2 47 0 65 -2 17 -4 3 -4 -33z"/>
<path d="M3512 2431 c-2 -82 -4 -92 -17 -81 -9 7 -15 8 -15 2 0 -10 30 -25 37
-19 2 3 2 47 0 98 l-3 94 -2 -94z"/>
<path d="M3493 2460 c0 -30 2 -43 4 -27 2 15 2 39 0 55 -2 15 -4 2 -4 -28z"/>
<path d="M2203 2455 c0 -27 2 -38 4 -22 2 15 2 37 0 50 -2 12 -4 0 -4 -28z"/>
<path d="M3313 2440 c0 -36 2 -50 4 -32 2 17 2 47 0 65 -2 17 -4 3 -4 -33z"/>
<path d="M2183 2450 c0 -25 2 -35 4 -22 2 12 2 32 0 45 -2 12 -4 2 -4 -23z"/>
<path d="M3333 2430 c0 -30 2 -43 4 -27 2 15 2 39 0 55 -2 15 -4 2 -4 -28z"/>
<path d="M3403 2430 c0 -25 2 -35 4 -22 2 12 2 32 0 45 -2 12 -4 2 -4 -23z"/>
<path d="M2231 2403 c-1 -28 2 -33 22 -32 15 1 17 3 5 6 -9 2 -19 16 -21 31
-4 24 -4 24 -6 -5z"/>
<path d="M3422 2410 c0 -14 2 -19 5 -12 2 6 2 18 0 25 -3 6 -5 1 -5 -13z"/>
<path d="M2923 2410 c-55 -12 -99 -35 -84 -44 6 -4 11 -2 11 4 0 6 4 9 9 6 5
-4 11 -1 13 5 2 6 41 16 86 22 69 9 97 8 177 -7 52 -10 93 -21 91 -25 -2 -3 6
-7 17 -8 12 -1 40 -4 62 -7 l40 -5 -35 9 c-19 5 -69 19 -110 30 -85 24 -214
33 -277 20z"/>
<path d="M2450 2394 c-36 -9 -87 -19 -115 -23 -39 -7 -43 -9 -17 -10 18 0 74
8 125 20 87 19 255 25 282 10 16 -9 35 -10 35 -1 0 24 -210 26 -310 4z"/>
<path d="M2603 2383 c15 -2 37 -2 50 0 12 2 0 4 -28 4 -27 0 -38 -2 -22 -4z"/>
<path d="M2927 2381 c-44 -17 -9 -25 111 -26 70 0 135 -5 145 -9 11 -5 17 -4
17 4 0 6 -4 9 -9 6 -5 -3 -14 1 -21 9 -7 8 -18 15 -24 15 -8 0 -8 -2 1 -8 6
-4 -44 -7 -112 -7 -68 0 -122 1 -121 3 2 1 23 6 47 11 34 7 37 9 14 9 -16 0
-38 -3 -48 -7z"/>
<path d="M3083 2383 c9 -2 25 -2 35 0 9 3 1 5 -18 5 -19 0 -27 -2 -17 -5z"/>
<path d="M2523 2373 c9 -2 23 -2 30 0 6 3 -1 5 -18 5 -16 0 -22 -2 -12 -5z"/>
<path d="M2635 2369 l-50 -7 62 2 c34 1 60 -1 58 -4 -2 -4 2 -7 10 -7 11 0 12
4 4 14 -6 7 -17 12 -23 11 -6 0 -33 -5 -61 -9z"/>
<path d="M2463 2363 c9 -2 23 -2 30 0 6 3 -1 5 -18 5 -16 0 -22 -2 -12 -5z"/>
<path d="M3363 2363 c9 -2 25 -2 35 0 9 3 1 5 -18 5 -19 0 -27 -2 -17 -5z"/>
<path d="M2361 2353 c-63 -5 -90 -23 -60 -41 10 -7 22 -12 26 -12 5 0 0 5 -11
11 -25 15 -4 28 49 30 22 0 49 4 60 9 11 5 13 8 5 7 -8 0 -39 -2 -69 -4z"/>
<path d="M2523 2353 c9 -2 25 -2 35 0 9 3 1 5 -18 5 -19 0 -27 -2 -17 -5z"/>
<path d="M2197 2339 c7 -7 15 -10 18 -7 3 3 -2 9 -12 12 -14 6 -15 5 -6 -5z"/>
<path d="M2246 2341 c-14 -5 -16 -10 -8 -15 7 -4 22 0 34 8 24 17 9 21 -26 7z"/>
<path d="M2468 2343 c6 -2 18 -2 25 0 6 3 1 5 -13 5 -14 0 -19 -2 -12 -5z"/>
<path d="M2535 2339 c-96 -12 -106 -20 -17 -12 78 6 158 21 112 21 -14 0 -56
-5 -95 -9z"/>
<path d="M2950 2340 c-14 -4 16 -5 65 -2 50 2 92 6 94 8 8 7 -134 2 -159 -6z"/>
<path d="M3408 2343 c7 -3 16 -2 19 1 4 3 -2 6 -13 5 -11 0 -14 -3 -6 -6z"/>
<path d="M2695 2331 c11 -3 -20 -9 -70 -12 l-90 -5 97 -2 c83 -2 97 0 92 13
-4 8 -16 14 -28 14 -20 -1 -20 -2 -1 -8z"/>
<path d="M3138 2333 c7 -3 16 -2 19 1 4 3 -2 6 -13 5 -11 0 -14 -3 -6 -6z"/>
<path d="M3228 2333 c7 -3 16 -2 19 1 4 3 -2 6 -13 5 -11 0 -14 -3 -6 -6z"/>
<path d="M2744 2316 c1 -8 5 -18 8 -22 4 -3 5 1 4 10 -1 8 -5 18 -8 22 -4 3
-5 -1 -4 -10z"/>
<path d="M3008 2323 c12 -2 32 -2 45 0 12 2 2 4 -23 4 -25 0 -35 -2 -22 -4z"/>
<path d="M3178 2323 c7 -3 16 -2 19 1 4 3 -2 6 -13 5 -11 0 -14 -3 -6 -6z"/>
<path d="M3370 2319 c0 -5 5 -7 10 -4 6 3 10 8 10 11 0 2 -4 4 -10 4 -5 0 -10
-5 -10 -11z"/>
<path d="M3418 2323 c7 -3 16 -2 19 1 4 3 -2 6 -13 5 -11 0 -14 -3 -6 -6z"/>
<path d="M2209 2309 c-11 -7 -8 -9 11 -10 14 -1 37 -3 52 -4 15 -1 25 2 22 6
-2 4 -11 6 -19 3 -7 -3 -22 -1 -32 5 -12 6 -25 6 -34 0z"/>
<path d="M2818 2309 c6 -9 9 -19 5 -22 -11 -12 -41 -8 -46 6 -3 7 -6 5 -6 -5
-1 -24 47 -24 65 -1 7 10 16 14 20 10 5 -4 2 -13 -6 -18 -13 -9 -13 -10 0 -6
8 2 16 13 16 25 1 17 -2 19 -16 12 -11 -6 -22 -5 -30 3 -12 10 -12 9 -2 -4z"/>
<path d="M2890 2310 c-9 -6 -10 -10 -3 -10 6 0 15 5 18 10 8 12 4 12 -15 0z"/>
<path d="M2940 2310 c25 -8 97 -13 89 -6 -2 2 -29 6 -59 9 -36 4 -46 3 -30 -3z"/>
<path d="M3108 2313 c6 -2 18 -2 25 0 6 3 1 5 -13 5 -14 0 -19 -2 -12 -5z"/>
<path d="M3225 2309 c14 -6 5 -7 -30 -4 -45 4 -43 3 25 -15 45 -11 105 -19
150 -18 l75 1 -98 7 c-102 8 -143 20 -67 20 57 0 48 6 -20 13 -37 4 -48 2 -35
-4z"/>
<path d="M3450 2310 c-9 -6 -10 -10 -3 -10 6 0 15 5 18 10 8 12 4 12 -15 0z"/>
<path d="M2431 2299 c18 -11 39 -11 39 0 0 5 -12 9 -26 9 -18 0 -22 -3 -13 -9z"/>
<path d="M2493 2303 c9 -2 23 -2 30 0 6 3 -1 5 -18 5 -16 0 -22 -2 -12 -5z"/>
<path d="M3048 2303 c7 -3 16 -2 19 1 4 3 -2 6 -13 5 -11 0 -14 -3 -6 -6z"/>
<path d="M3108 2293 c7 -3 16 -2 19 1 4 3 -2 6 -13 5 -11 0 -14 -3 -6 -6z"/>
<path d="M3353 2293 c15 -2 39 -2 55 0 15 2 2 4 -28 4 -30 0 -43 -2 -27 -4z"/>
<path d="M3470 2290 c-9 -6 -10 -10 -3 -10 6 0 15 5 18 10 8 12 4 12 -15 0z"/>
<path d="M2198 2283 c7 -3 16 -2 19 1 4 3 -2 6 -13 5 -11 0 -14 -3 -6 -6z"/>
<path d="M2230 2280 c0 -15 71 -24 90 -12 10 6 26 9 36 6 11 -2 33 0 49 4 24
7 19 9 -32 8 -33 -1 -59 -4 -56 -8 6 -11 -15 -10 -55 1 -18 6 -32 6 -32 1z"/>
<path d="M3228 2263 c7 -3 16 -2 19 1 4 3 -2 6 -13 5 -11 0 -14 -3 -6 -6z"/>
<path d="M3283 1674 c-38 -9 -83 -70 -83 -113 0 -54 28 -85 116 -127 81 -40
92 -49 97 -85 8 -46 -12 -78 -55 -89 -69 -19 -120 8 -151 80 l-15 35 -1 -60
c-1 -59 0 -60 27 -61 15 -1 49 -6 75 -11 94 -20 162 18 177 98 14 76 -5 102
-116 159 -83 43 -93 51 -100 87 -7 39 14 63 63 70 50 7 97 -22 119 -71 l13
-31 1 53 c0 45 -3 53 -17 50 -10 -1 -23 1 -30 5 -15 10 -92 16 -120 11z"/>
<path d="M4640 1658 c-72 -27 -151 -86 -197 -148 -21 -28 -40 -50 -44 -50 -4
0 -17 19 -28 43 -11 23 -30 56 -41 72 -25 38 -26 82 -2 88 9 3 -19 5 -63 6
-77 0 -79 0 -60 -17 22 -19 21 -18 91 -137 42 -71 48 -87 49 -145 2 -65 -12
-114 -37 -122 -6 -2 24 -4 68 -5 l80 0 -23 23 c-20 20 -23 33 -23 94 0 83 17
117 102 196 66 62 132 95 207 101 101 8 152 -38 157 -141 3 -61 -18 -117 -54
-139 -15 -9 -21 -17 -13 -17 7 0 29 9 47 21 107 66 96 216 -20 274 -61 31
-121 32 -196 3z"/>
<path d="M678 1658 c29 -14 31 -25 34 -189 3 -131 5 -138 31 -172 47 -62 162
-79 232 -33 43 28 55 72 55 204 0 145 6 177 34 190 17 9 8 11 -44 11 l-65 1
25 -20 c25 -19 25 -20 25 -175 l0 -157 -34 -30 c-31 -28 -38 -30 -87 -25 -35
4 -61 13 -76 27 -22 20 -23 29 -26 181 -3 141 -1 163 14 180 17 19 15 19 -62
18 -65 0 -75 -2 -56 -11z"/>
<path d="M1157 1658 c30 -14 33 -33 33 -206 0 -150 0 -153 -25 -178 -14 -14
-25 -26 -25 -28 0 -2 27 -3 60 -4 l61 0 -26 23 c-25 24 -25 27 -25 170 0 87 4
145 10 145 5 0 27 -24 49 -53 21 -30 56 -74 78 -98 21 -25 47 -58 58 -73 51
-71 88 -116 96 -116 5 0 9 75 10 168 1 200 4 222 30 245 21 17 19 17 -42 16
-48 0 -58 -3 -42 -9 12 -5 25 -19 28 -32 7 -32 11 -258 5 -258 -7 0 -76 82
-170 203 l-75 96 -55 0 c-45 0 -51 -2 -33 -11z"/>
<path d="M1668 1649 c22 -20 23 -27 22 -193 -1 -95 -5 -177 -8 -183 -4 -5 -15
-14 -25 -19 -12 -7 7 -10 63 -9 77 0 79 1 58 17 -21 16 -22 23 -22 193 0 174
0 178 23 196 23 19 23 19 -55 19 l-78 0 22 -21z"/>
<path d="M1877 1658 c13 -6 30 -33 43 -67 12 -31 26 -65 31 -76 4 -11 22 -58
40 -105 17 -47 38 -99 45 -117 8 -17 14 -36 14 -42 0 -38 25 8 75 137 84 214
92 232 123 258 l27 24 -65 0 c-59 -1 -63 -2 -46 -15 29 -22 24 -65 -23 -181
-23 -56 -41 -106 -41 -113 0 -33 -20 2 -63 112 -60 153 -62 163 -34 182 20 14
15 15 -63 14 -67 0 -80 -3 -63 -11z"/>
<path d="M2342 1663 c27 -7 33 -44 33 -219 0 -138 -2 -165 -17 -181 -16 -18
-13 -18 140 -17 86 1 160 3 164 3 7 1 15 111 8 111 -3 0 -10 -15 -15 -32 -13
-43 -62 -68 -132 -68 -69 0 -83 19 -83 117 0 51 4 73 13 74 37 3 64 -5 79 -24
17 -21 18 -21 17 38 -1 33 -3 52 -6 43 -4 -16 -57 -38 -90 -38 -10 0 -13 25
-13 90 l0 90 75 0 c68 0 76 -2 100 -27 l26 -28 -3 35 -3 35 -155 1 c-85 1
-147 0 -138 -3z"/>
<path d="M2757 1654 c20 -18 22 -29 24 -164 3 -213 2 -218 -21 -225 -40 -13
-18 -20 58 -20 75 0 77 1 58 17 -18 14 -22 30 -24 107 l-4 90 38 -4 c52 -7 61
-17 111 -121 l45 -91 56 0 c50 -1 54 1 37 13 -10 8 -22 14 -26 14 -3 0 -23 30
-42 68 -41 76 -66 107 -99 118 -21 6 -20 8 19 25 75 32 92 108 37 160 -24 22
-35 24 -157 28 -129 3 -131 3 -110 -15z m202 -21 c24 -21 35 -72 21 -107 -11
-30 -53 -53 -95 -52 l-30 1 -3 88 -3 87 45 0 c27 0 52 -7 65 -17z"/>
<path d="M3582 1663 c27 -7 32 -37 33 -188 1 -157 -5 -201 -31 -219 -14 -11
-4 -13 60 -13 68 1 76 3 59 14 -16 12 -18 33 -21 192 -4 175 -3 179 19 200
l23 21 -80 -1 c-43 -1 -71 -3 -62 -6z"/>
<path d="M3789 1658 c0 -7 -2 -32 -3 -55 -4 -52 9 -57 18 -8 8 40 33 55 92 55
25 0 34 -4 35 -17 0 -10 1 -94 0 -188 0 -158 -2 -171 -20 -186 -19 -16 -17
-17 49 -16 71 1 79 4 59 24 -8 8 -12 73 -13 197 l-1 186 47 0 c53 0 73 -15 83
-60 8 -37 25 -30 21 8 -2 15 -4 37 -5 50 -1 22 -1 22 -181 22 -137 0 -180 -3
-181 -12z"/>
<path d="M4978 1662 c9 -6 14 -44 16 -132 3 -108 1 -125 -15 -141 -24 -24 -15
-27 51 -19 30 4 47 8 38 9 -10 0 -18 9 -19 19 -6 117 -5 123 16 118 11 -3 23
-6 28 -6 4 0 7 -6 7 -14 0 -8 4 -17 9 -20 5 -3 8 17 8 44 -1 47 -3 49 -17 32
-8 -10 -24 -18 -35 -18 -17 1 -20 9 -22 59 l-3 57 54 0 c39 0 55 -4 60 -15 8
-23 23 -18 22 8 -1 21 -5 22 -106 25 -60 1 -99 -1 -92 -6z"/>
<path d="M4691 1584 c-80 -67 -48 -198 55 -219 25 -5 26 -4 7 4 -34 15 -54 55
-56 113 -2 64 27 114 71 121 22 3 20 4 -10 6 -26 1 -45 -6 -67 -25z"/>
<path d="M3380 1048 c-127 -36 -195 -185 -141 -310 29 -68 88 -115 154 -123
57 -7 67 -6 155 27 l52 19 0 74 c0 60 3 76 18 84 15 9 14 11 -8 12 -14 0 -46
2 -72 4 -52 3 -61 -5 -25 -20 18 -8 23 -19 25 -59 6 -92 -35 -134 -119 -123
-83 11 -121 76 -118 201 2 96 10 121 49 163 66 70 178 49 219 -41 l18 -41 -1
63 c-1 46 -4 61 -14 57 -7 -2 -41 2 -75 10 -70 17 -70 17 -117 3z"/>
<path d="M696 1022 c16 -24 18 -48 16 -197 -2 -159 -3 -171 -23 -187 -20 -17
-17 -18 90 -18 141 0 194 13 223 53 43 60 21 124 -55 161 l-49 23 31 11 c46
16 67 69 47 117 -20 47 -49 57 -185 61 l-113 4 18 -28z m179 -4 c14 -6 28 -22
31 -37 3 -14 7 -34 9 -45 10 -47 -38 -86 -106 -86 l-29 0 0 90 0 90 35 0 c19
0 46 -5 60 -12z m51 -213 c20 -13 24 -24 24 -66 0 -67 -32 -99 -99 -99 -26 0
-52 5 -59 12 -7 7 -12 44 -12 94 l0 83 33 3 c39 4 81 -6 113 -27z"/>
<path d="M1140 1043 c0 -5 7 -17 15 -27 12 -16 15 -55 15 -186 0 -169 -4 -190
-40 -203 -8 -3 23 -6 70 -6 80 0 84 1 63 16 -22 15 -23 20 -23 194 0 170 1
179 22 199 l22 20 -72 0 c-40 0 -72 -3 -72 -7z"/>
<path d="M1410 1046 c0 -4 7 -14 15 -22 12 -13 15 -49 15 -194 0 -173 -1 -179
-22 -194 -21 -15 -17 -16 62 -16 69 1 81 3 65 12 -32 18 -35 28 -35 116 l0 82
38 0 c46 0 59 -14 115 -125 l41 -85 50 0 49 0 -29 28 c-16 16 -45 58 -64 95
-23 45 -44 71 -62 80 -36 15 -35 22 2 37 17 7 40 26 52 42 18 26 19 34 9 68
-18 60 -46 72 -183 78 -65 3 -118 2 -118 -2z m195 -28 c14 -6 28 -23 31 -37 3
-14 8 -32 10 -39 14 -46 -36 -92 -100 -92 l-36 0 0 90 0 90 35 0 c19 0 46 -5
60 -12z"/>
<path d="M1875 1034 c19 -14 20 -27 20 -195 0 -178 0 -181 -24 -200 l-23 -19
68 0 c67 1 68 1 42 16 -15 8 -30 25 -33 37 -10 38 -1 304 9 282 41 -92 56
-129 76 -185 30 -87 60 -144 69 -134 4 5 20 38 36 74 34 78 71 163 91 207 8
17 14 37 14 44 0 9 3 10 11 2 7 -7 9 -62 7 -157 -3 -143 -4 -148 -28 -166
l-25 -20 82 0 82 0 -24 24 c-24 24 -24 26 -22 196 2 170 2 171 27 191 l25 19
-55 -2 c-52 -3 -56 -5 -72 -38 -22 -43 -58 -127 -58 -134 0 -12 -62 -136 -68
-136 -4 0 -27 51 -51 113 -25 61 -48 116 -53 122 -4 5 -8 16 -8 25 0 29 -32
47 -85 48 -47 2 -49 1 -30 -14z"/>
<path d="M2485 1034 c19 -14 20 -27 20 -200 0 -172 -1 -187 -19 -200 -18 -13
-12 -14 58 -14 77 0 78 0 56 18 -21 17 -22 24 -22 197 -1 166 1 180 19 195 19
15 16 16 -56 17 -68 1 -74 0 -56 -13z"/>
<path d="M2744 1023 l27 -26 -2 -165 c-1 -163 -1 -165 -26 -188 l-26 -24 64 0
64 0 -25 20 c-24 18 -25 25 -28 137 -2 65 -2 136 0 158 l3 40 25 -36 c25 -36
63 -84 130 -164 19 -23 46 -56 60 -75 39 -51 65 -80 73 -80 4 0 7 76 7 169 0
202 4 227 39 246 25 14 23 14 -37 15 l-63 0 20 -26 c19 -24 21 -40 21 -150 0
-76 -4 -124 -10 -124 -5 0 -10 4 -10 8 0 4 -27 41 -60 81 -33 41 -73 90 -88
109 -80 101 -81 102 -135 102 l-50 0 27 -27z"/>
<path d="M3739 1026 c20 -21 21 -34 21 -192 0 -157 -2 -172 -20 -192 l-21 -22
77 0 78 0 -22 20 c-17 16 -22 33 -23 78 -1 57 1 105 5 109 1 2 48 4 104 6
l102 4 0 -88 c0 -76 -3 -92 -20 -109 l-20 -20 77 0 77 0 -22 20 c-21 20 -22
29 -22 193 0 95 4 177 8 183 4 6 16 16 27 22 16 9 3 11 -64 11 -46 -1 -80 -4
-74 -7 22 -15 33 -54 33 -115 l0 -65 -59 -4 c-67 -5 -152 3 -151 15 0 4 0 36
0 72 0 53 4 68 22 84 l21 21 -77 -1 -78 -1 21 -22z"/>
<path d="M4394 1013 c-8 -21 -31 -76 -50 -123 -19 -47 -41 -98 -48 -115 -8
-16 -17 -41 -21 -54 -4 -13 -23 -41 -42 -62 l-35 -39 68 0 69 1 -28 17 c-31
19 -32 38 -3 106 15 36 15 36 78 36 35 0 69 -4 75 -8 7 -5 20 -32 29 -62 16
-53 16 -54 -8 -72 -23 -17 -22 -18 60 -18 75 0 103 10 67 23 -15 6 -57 82 -70
127 -6 23 -31 84 -75 185 -9 22 -20 52 -24 68 -9 37 -23 34 -42 -10z m12 -100
c52 -119 52 -117 -18 -121 -32 -2 -58 0 -58 4 0 9 54 154 57 154 1 0 9 -17 19
-37z"/>
<path d="M4685 1041 c3 -6 13 -11 21 -11 16 0 16 -5 16 -225 -1 -138 -1 -140
-27 -162 l-26 -23 66 0 66 0 -26 23 c-25 22 -25 25 -28 175 -2 144 4 186 19
125 4 -16 10 -32 14 -38 4 -5 22 -48 39 -95 17 -47 36 -93 41 -102 6 -10 10
-24 10 -32 0 -7 9 -24 20 -37 15 -19 19 -21 20 -7 0 9 9 33 19 55 11 21 41 88
67 148 26 61 52 115 58 122 8 9 9 -31 5 -150 -3 -89 -6 -163 -7 -165 -1 -1
-12 -7 -24 -12 -17 -6 0 -9 60 -9 l82 -1 -20 20 c-18 18 -20 33 -20 193 0 161
1 175 21 195 l20 22 -50 -1 c-55 -2 -53 0 -106 -124 -9 -22 -27 -62 -40 -90
-12 -27 -26 -60 -30 -73 -10 -35 -24 -23 -51 43 -14 33 -29 69 -33 80 -5 11
-18 45 -31 75 -12 30 -26 62 -30 70 -5 10 -26 16 -64 18 -39 2 -56 0 -51 -7z"/>
</g>
</svg>
