<?xml version="1.0" standalone="no"?>
<!DOCTYPE svg PUBLIC "-//W3C//DTD SVG 20010904//EN"
 "http://www.w3.org/TR/2001/REC-SVG-20010904/DTD/svg10.dtd">
<svg version="1.0" xmlns="http://www.w3.org/2000/svg"
 width="337.000000pt" height="150.000000pt" viewBox="0 0 337.000000 150.000000"
 preserveAspectRatio="xMidYMid meet">

<g transform="translate(0.000000,150.000000) scale(0.100000,-0.100000)"
fill="#000000" stroke="none">
<path d="M1683 1254 c-7 -18 14 -35 34 -27 7 3 13 14 13 24 0 24 -38 26 -47 3z"/>
<path d="M2793 1254 c-6 -17 14 -36 32 -31 6 2 11 13 13 25 3 17 -2 22 -18 22
-11 0 -23 -7 -27 -16z"/>
<path d="M0 947 l0 -313 27 -55 c34 -67 142 -176 208 -209 65 -32 125 -32 190
-1 69 34 175 142 211 216 l29 60 3 308 3 307 -335 0 -336 0 0 -313z m416 245
c3 -15 7 -35 9 -45 2 -9 -4 -21 -13 -27 -10 -5 -12 -10 -4 -10 6 0 12 -4 12
-8 0 -5 -40 -9 -90 -9 -49 0 -90 4 -90 9 0 4 6 8 13 9 10 0 10 2 0 6 -14 5
-17 43 -7 80 5 20 12 21 85 21 78 0 79 0 85 -26z m-236 -46 c0 -25 -34 -55
-85 -76 l-50 -21 55 55 c55 55 80 68 80 42z m-40 -76 c0 -5 -5 -10 -11 -10 -5
0 -7 5 -4 10 3 6 8 10 11 10 2 0 4 -4 4 -10z m48 -48 c9 9 12 7 12 -10 0 -15
6 -22 20 -22 12 0 17 -5 14 -14 -3 -7 2 -16 12 -20 13 -5 14 -9 4 -21 -10 -12
-9 -16 4 -21 16 -6 16 -8 1 -24 -13 -14 -14 -19 -3 -24 10 -5 10 -7 1 -12 -7
-3 -13 -14 -13 -25 0 -16 -7 -19 -40 -19 l-40 0 0 -40 c0 -28 -4 -40 -14 -40
-11 0 -13 10 -9 39 l5 40 -43 3 c-35 2 -43 6 -41 21 2 9 -2 17 -9 17 -6 0 -8
7 -5 16 4 9 1 23 -5 30 -9 11 -9 14 0 14 7 0 9 9 5 25 -5 19 -2 25 10 25 10 0
13 6 10 15 -4 9 0 15 9 15 8 0 17 10 20 22 5 17 9 19 21 9 12 -10 16 -8 21 10
l7 22 17 -22 c13 -17 19 -19 29 -9z m160 -4 c18 -58 23 -126 9 -131 -14 -4
-10 -76 5 -94 12 -15 2 -33 -20 -33 -12 0 -13 -3 -4 -12 7 -7 12 -26 12 -43 0
-17 5 -36 11 -42 14 -14 3 -33 -18 -33 -13 0 -13 -3 -3 -15 7 -8 27 -15 45
-15 19 0 35 -5 37 -11 3 -9 13 -9 41 0 40 14 45 25 22 55 -8 11 -15 28 -15 38
0 15 4 16 26 8 15 -6 49 -8 78 -4 l51 6 -35 -30 c-21 -19 -42 -29 -52 -26 -19
6 -25 -11 -8 -21 24 -15 -52 -105 -108 -126 -14 -5 -20 -14 -16 -21 5 -8 -9
-9 -56 -5 -87 10 -133 25 -175 59 -41 34 -74 90 -56 96 6 2 8 8 5 13 -6 11 13
39 27 39 4 0 10 -8 14 -17 3 -10 21 -25 40 -34 19 -9 32 -12 28 -6 -4 6 9 8
35 4 43 -5 51 0 30 21 -9 9 -9 15 0 24 16 16 16 90 0 106 -9 9 -9 15 0 24 15
15 16 94 2 103 -6 4 -7 12 -3 18 4 7 6 24 4 40 -3 31 16 97 29 97 5 0 13 -15
18 -32z m225 -2 c-1 -16 4 -40 11 -55 7 -14 17 -52 20 -83 l7 -57 -77 -3 c-48
-2 -79 -7 -81 -15 -2 -6 6 -13 19 -16 18 -3 16 -5 -9 -6 -17 0 -34 3 -37 8 -9
15 13 153 28 176 9 13 10 28 5 43 -14 36 -2 43 59 40 56 -3 57 -4 55 -32z
m-47 -221 c14 -13 13 -15 -5 -15 -12 0 -21 6 -21 15 0 8 3 15 6 15 3 0 12 -7
20 -15z m-181 -347 c16 -7 25 -19 25 -35 0 -20 -5 -23 -40 -23 -42 0 -45 7
-25 53 9 20 7 20 40 5z"/>
<path d="M321 1148 c-1 -21 -5 -25 -21 -21 -11 3 -20 1 -20 -5 0 -5 11 -12 24
-14 32 -6 86 2 86 13 0 12 -21 11 -40 -1 -12 -7 -16 -3 -21 23 -6 29 -6 30 -8
5z"/>
<path d="M145 990 c-4 -6 -1 -10 4 -10 6 0 11 -7 11 -15 0 -8 3 -15 8 -15 12
0 10 -104 -2 -112 -6 -4 1 -8 17 -8 15 0 26 3 26 8 -1 4 0 9 1 12 1 3 3 24 3
48 1 27 -2 42 -10 42 -7 0 -10 7 -6 17 4 11 3 14 -5 9 -7 -4 -12 -1 -12 7 0
18 -27 30 -35 17z"/>
<path d="M135 650 c-3 -5 1 -10 10 -10 9 0 13 5 10 10 -3 6 -8 10 -10 10 -2 0
-7 -4 -10 -10z"/>
<path d="M482 1005 c14 -30 53 -34 68 -6 15 29 14 31 -35 31 -44 0 -44 0 -33
-25z"/>
<path d="M850 1247 c25 -12 25 -15 30 -154 6 -162 14 -181 90 -220 98 -50 225
-18 268 67 19 39 22 60 22 168 l0 123 33 14 c31 14 29 14 -48 14 -63 0 -75 -2
-55 -10 13 -6 28 -15 32 -22 14 -22 9 -235 -7 -273 -26 -63 -133 -93 -204 -56
-64 32 -76 59 -80 191 -3 128 4 157 41 164 13 2 -15 5 -62 5 -74 2 -82 0 -60
-11z"/>
<path d="M2961 1160 c-7 -14 -22 -35 -33 -46 -17 -19 -17 -22 -4 -27 13 -5 16
-25 16 -102 0 -82 3 -98 20 -115 11 -11 28 -20 39 -20 21 0 71 36 71 52 0 6
-8 4 -18 -5 -23 -21 -36 -21 -56 -1 -12 12 -16 37 -16 104 l0 89 35 3 c45 4
46 22 1 26 -31 3 -35 7 -38 35 l-3 32 -14 -25z"/>
<path d="M1686 1113 c-52 -17 -54 -21 -22 -33 27 -10 27 -10 24 -102 -3 -87
-4 -93 -28 -105 -22 -11 -17 -13 50 -13 67 0 72 2 50 13 -24 12 -25 17 -30
133 l-5 121 -39 -14z"/>
<path d="M2796 1113 c-52 -17 -54 -21 -22 -33 27 -10 27 -10 24 -102 -3 -87
-4 -93 -28 -105 -22 -11 -17 -13 50 -12 54 0 69 3 53 9 -28 11 -32 31 -36 156
l-2 101 -39 -14z"/>
<path d="M1338 1108 c-33 -11 -36 -24 -8 -31 18 -5 20 -14 20 -95 0 -83 -2
-92 -22 -106 -21 -15 -19 -16 42 -16 61 0 63 1 42 16 -20 14 -22 24 -22 99 l0
85 40 20 c21 11 46 20 54 20 29 0 46 -42 46 -110 0 -83 -7 -105 -33 -118 -17
-8 -6 -11 53 -10 46 0 65 3 50 7 -24 7 -25 10 -30 112 -3 69 -10 112 -19 123
-18 22 -63 20 -111 -4 -22 -11 -42 -20 -45 -20 -3 0 -5 9 -5 20 0 22 -11 24
-52 8z"/>
<path d="M1770 1111 c0 -5 8 -11 18 -13 12 -4 35 -43 66 -114 26 -60 54 -115
61 -123 12 -12 15 -11 24 10 39 102 86 198 107 216 13 12 24 25 24 28 0 3 -25
5 -55 5 -54 0 -74 -13 -35 -23 11 -3 20 -12 20 -21 0 -26 -62 -168 -70 -159
-9 11 -70 161 -70 173 0 5 9 10 20 10 11 0 20 5 20 10 0 6 -28 10 -65 10 -36
0 -65 -4 -65 -9z"/>
<path d="M2114 1087 c-31 -28 -37 -42 -41 -84 -14 -139 112 -203 202 -103 l20
22 -37 -22 c-27 -16 -46 -20 -67 -15 -42 9 -81 58 -81 101 l0 34 95 0 c52 0
95 2 95 5 0 14 -34 71 -49 82 -9 7 -35 13 -59 13 -34 0 -49 -6 -78 -33z m106
3 c38 -38 27 -50 -45 -50 -57 0 -64 2 -58 18 19 52 67 68 103 32z"/>
<path d="M2358 1108 c-33 -11 -36 -24 -8 -31 18 -5 20 -14 20 -100 0 -88 -2
-95 -22 -105 -19 -9 -7 -11 57 -10 49 0 68 3 50 7 l-30 6 -3 84 c-3 100 10
123 67 119 26 -2 36 1 39 14 2 11 -6 18 -29 23 -29 6 -36 4 -56 -21 l-23 -29
0 28 c0 30 -14 33 -62 15z"/>
<path d="M2581 1094 c-37 -47 -28 -68 62 -137 41 -31 46 -55 19 -80 -26 -24
-40 -21 -75 16 -29 30 -30 31 -24 7 4 -14 7 -29 7 -35 0 -5 20 -11 44 -12 57
-4 96 25 96 71 0 33 -26 65 -81 100 -15 9 -29 26 -32 37 -6 21 16 49 38 49 15
0 45 -27 45 -41 0 -5 5 -9 11 -9 6 0 9 12 7 28 -3 25 -7 27 -49 30 -41 3 -50
-1 -68 -24z"/>
<path d="M3080 1110 c0 -5 6 -10 14 -10 16 0 126 -219 126 -251 0 -33 -29 -78
-61 -94 -33 -18 -34 -38 -1 -43 26 -4 29 2 108 198 34 85 71 165 83 178 12 13
21 26 21 28 0 2 -24 4 -52 3 -51 0 -52 -1 -30 -16 12 -8 22 -21 22 -27 0 -6
-14 -47 -32 -90 l-32 -80 -38 83 c-42 91 -46 111 -23 111 8 0 15 5 15 10 0 6
-27 10 -60 10 -33 0 -60 -4 -60 -10z"/>
<path d="M1218 795 c-31 -17 -61 -64 -78 -121 -9 -29 -20 -44 -39 -51 -25 -10
-25 -11 -3 -12 27 -1 27 -5 2 -151 -33 -192 -61 -238 -121 -202 -27 15 -59 11
-59 -8 0 -17 46 -33 73 -26 37 9 85 53 108 97 10 21 29 95 41 164 l22 125 28
0 c15 0 28 5 28 10 0 6 -11 10 -25 10 -28 0 -28 -1 -15 60 20 90 42 110 92 84
36 -18 60 -6 38 21 -16 19 -56 19 -92 0z"/>
<path d="M1783 798 c-38 -13 -43 -25 -10 -30 22 -3 22 -4 22 -183 0 -177 0
-180 -22 -190 -39 -17 -25 -25 41 -25 63 0 100 15 54 22 -23 3 -23 3 -26 211
-2 156 -5 207 -15 206 -6 -1 -27 -6 -44 -11z"/>
<path d="M1468 776 c-57 -20 -85 -42 -116 -88 -23 -36 -27 -51 -27 -118 0 -66
4 -82 27 -117 53 -80 165 -106 294 -68 l54 16 0 58 c0 49 4 61 23 74 21 15 17
16 -68 16 -69 -1 -83 -3 -60 -10 41 -12 55 -35 55 -86 0 -41 -3 -45 -35 -59
-66 -27 -136 -12 -187 42 -36 39 -48 74 -48 141 0 111 59 183 155 191 65 5
110 -16 132 -63 23 -48 33 -44 33 13 l0 48 -70 12 c-88 15 -115 15 -162 -2z"/>
<path d="M955 624 c-69 -35 -105 -89 -105 -154 0 -60 24 -100 59 -100 34 0
105 50 124 87 35 67 28 151 -13 173 -25 13 -30 13 -65 -6z m58 -66 c12 -50
-19 -138 -56 -158 -27 -14 -29 -14 -48 9 -36 44 -17 160 33 195 30 21 60 2 71
-46z"/>
<path d="M1985 630 c-24 -10 -71 -58 -63 -65 10 -10 33 5 43 28 6 12 20 23 31
25 32 5 54 -24 54 -69 0 -36 -3 -41 -37 -55 -81 -34 -88 -39 -91 -67 -2 -16 2
-35 9 -43 15 -19 64 -18 94 2 23 15 25 15 31 0 7 -19 24 -20 59 -4 31 14 32
25 3 24 -22 -1 -23 3 -26 96 -3 91 -4 98 -29 118 -27 21 -46 24 -78 10z m65
-178 c0 -32 -5 -41 -26 -51 -67 -30 -91 38 -24 71 48 24 50 23 50 -20z"/>
<path d="M2196 619 c-19 -15 -26 -30 -26 -54 0 -28 7 -38 49 -69 63 -45 75
-66 55 -94 -23 -33 -60 -28 -84 11 l-20 32 0 -36 0 -36 52 -2 c41 -1 56 3 75
21 44 41 21 99 -59 146 -29 17 -45 52 -33 71 3 6 19 11 35 11 22 0 33 -7 44
-27 l15 -28 1 31 c0 48 -56 61 -104 23z"/>
<path d="M2413 620 c-59 -35 -70 -94 -27 -137 14 -14 24 -26 22 -28 -2 -1 -13
-8 -26 -14 -29 -15 -26 -52 6 -66 29 -13 28 -17 -9 -44 -66 -49 -6 -118 94
-107 62 7 129 43 141 77 23 67 -17 99 -125 99 -66 0 -89 7 -89 26 0 14 14 19
84 28 53 7 90 44 90 91 0 32 3 35 28 35 22 0 28 5 28 21 0 19 -4 20 -38 14
-25 -4 -47 -1 -67 9 -40 21 -73 20 -112 -4z m91 -11 c21 -17 26 -29 26 -65 0
-46 -25 -84 -54 -84 -28 0 -67 44 -73 82 -4 30 -1 41 20 62 32 31 46 32 81 5z
m70 -262 c24 -18 17 -55 -15 -79 -82 -61 -216 4 -152 74 12 14 31 18 83 18 39
0 74 -5 84 -13z"/>
<path d="M2724 626 c-48 -21 -74 -65 -74 -125 0 -44 5 -56 34 -89 33 -36 37
-37 100 -37 60 0 68 3 97 32 42 41 51 120 21 169 -36 56 -113 78 -178 50z m97
-19 c76 -59 67 -192 -15 -221 -80 -29 -151 140 -87 208 27 28 74 34 102 13z"/>
<path d="M2929 612 c12 -9 44 -67 71 -127 27 -61 54 -110 60 -110 6 0 27 37
47 82 19 46 39 81 43 78 4 -3 22 -41 40 -85 18 -44 36 -80 42 -80 5 0 15 15
22 33 66 160 81 191 99 208 21 19 21 19 -34 18 -42 0 -49 -2 -31 -9 12 -5 22
-15 22 -22 0 -24 -63 -169 -70 -161 -13 14 -60 143 -60 162 0 11 8 22 18 24 9
3 -14 5 -53 5 -66 1 -69 0 -44 -13 15 -8 29 -21 33 -30 5 -14 -37 -128 -55
-149 -4 -5 -22 22 -39 60 -42 94 -45 110 -23 123 14 8 4 10 -46 11 -62 0 -63
0 -42 -18z"/>
<path d="M42 377 l-43 -21 3 -66 3 -65 330 0 330 0 3 61 3 62 -47 26 c-26 14
-48 25 -50 23 -2 -2 1 -16 5 -33 5 -16 10 -21 10 -11 1 22 10 22 41 0 l25 -18
-45 -7 c-58 -9 -502 -9 -559 0 -35 6 -41 9 -30 18 28 22 49 24 50 6 0 -12 3
-10 10 7 15 37 8 40 -39 18z m28 -92 c0 -5 -5 -17 -10 -25 -9 -13 -11 -13 -20
0 -15 23 -12 36 10 36 11 0 20 -5 20 -11z m44 0 c7 19 22 12 28 -13 4 -16 -1
-19 -28 -20 -31 -1 -34 1 -34 26 1 25 2 26 14 9 12 -16 14 -16 20 -2z m76 3
c0 -9 3 -9 8 -3 4 6 17 12 30 12 17 1 22 -4 22 -23 0 -15 -6 -24 -15 -24 -8 0
-15 8 -15 17 0 15 -2 15 -14 -2 -13 -18 -14 -18 -25 3 -14 26 -14 32 -1 32 6
0 10 -6 10 -12z m106 -16 c1 -15 -5 -22 -17 -22 -12 0 -19 7 -19 18 0 38 34
41 36 4z m21 -9 c-3 -10 -5 -4 -5 12 0 17 2 24 5 18 2 -7 2 -21 0 -30z m42 30
c-1 -16 -18 -48 -18 -36 -1 6 -4 18 -7 27 -4 11 -1 16 10 16 9 0 16 -3 15 -7z
m46 -13 c3 -11 10 -20 15 -20 4 0 6 9 3 20 -3 13 0 20 9 20 7 0 15 -11 16 -25
2 -24 -1 -25 -38 -23 -41 3 -44 6 -34 32 8 22 21 20 29 -4z m108 12 c4 9 6 9
6 -2 0 -8 -4 -22 -9 -30 -9 -13 -11 -13 -20 0 -16 24 -13 45 4 31 11 -9 15 -9
19 1z m37 -23 c0 -10 -4 -19 -10 -19 -5 0 -10 12 -10 26 0 14 4 23 10 19 6 -3
10 -15 10 -26z m32 6 c-2 -14 -8 -25 -12 -25 -4 0 -10 11 -12 25 -4 19 -1 25
12 25 13 0 16 -6 12 -25z m51 -4 c3 -14 -1 -18 -19 -18 -27 0 -28 1 -13 28 11
22 24 18 32 -10z"/>
</g>
</svg>
