<?xml version="1.0" standalone="no"?>
<!DOCTYPE svg PUBLIC "-//W3C//DTD SVG 20010904//EN"
 "http://www.w3.org/TR/2001/REC-SVG-20010904/DTD/svg10.dtd">
<svg version="1.0" xmlns="http://www.w3.org/2000/svg"
 width="543.000000pt" height="230.000000pt" viewBox="0 0 543.000000 230.000000"
 preserveAspectRatio="xMidYMid meet">

<g transform="translate(0.000000,230.000000) scale(0.100000,-0.100000)"
fill="#000000" stroke="none">
<path d="M0 1455 l0 -845 2715 0 2715 0 0 845 0 845 -2715 0 -2715 0 0 -845z
m2435 418 l50 -19 3 -52 c2 -28 -1 -52 -5 -52 -4 0 -20 20 -34 43 -35 59 -83
80 -164 75 -112 -7 -174 -80 -183 -214 -10 -157 74 -267 204 -267 64 0 133 37
167 88 21 34 37 44 37 26 0 -5 -9 -30 -19 -54 -17 -40 -26 -47 -76 -66 -112
-42 -245 -22 -318 47 -100 94 -102 285 -4 389 78 82 213 104 342 56z m-1885
-185 c47 -109 88 -200 91 -203 3 -2 45 87 94 200 l88 205 69 0 c70 0 93 -16
39 -26 -17 -4 -32 -12 -34 -18 -7 -19 22 -409 33 -433 22 -52 29 -41 155 257
89 208 93 215 122 218 l30 3 104 -242 c57 -133 111 -247 121 -252 12 -8 21 -7
32 2 14 12 16 42 14 234 l-3 221 -24 6 c-14 3 -26 11 -29 18 -3 9 14 12 57 12
l60 0 138 -162 c76 -89 153 -178 170 -198 l33 -35 -3 179 -2 180 -33 8 c-54
14 -26 28 58 28 81 0 113 -13 60 -25 l-30 -7 -2 -245 c-2 -160 -7 -248 -13
-250 -6 -2 -96 96 -200 218 l-190 222 -3 -187 c-3 -201 2 -226 43 -226 14 0
25 -4 25 -10 0 -6 -62 -10 -165 -10 -96 0 -165 4 -165 9 0 6 15 11 32 13 44 4
45 21 7 112 l-32 77 -105 -3 -105 -3 -29 -69 c-40 -97 -36 -116 23 -116 10 0
19 -4 19 -10 0 -6 -62 -10 -165 -10 -103 0 -165 4 -165 10 0 6 9 10 19 10 10
0 28 8 39 18 20 17 20 21 10 195 -6 97 -14 177 -18 177 -4 0 -46 -92 -94 -205
-49 -113 -93 -205 -100 -205 -6 0 -54 98 -106 218 l-95 217 -11 -190 c-11
-168 -10 -192 4 -207 8 -10 23 -18 34 -18 10 0 18 -4 18 -10 0 -6 -37 -10 -90
-10 -53 0 -90 4 -90 10 0 6 11 10 24 10 13 0 29 6 35 14 11 14 43 420 34 442
-2 7 -17 14 -34 18 -16 3 -29 10 -29 16 0 7 26 10 72 8 l72 -3 86 -197z m2175
192 c3 -5 -9 -13 -27 -18 l-33 -8 -3 -97 -3 -97 146 0 146 0 -3 97 -3 96 -33
11 c-18 6 -30 15 -26 19 12 11 204 8 204 -3 0 -6 -14 -13 -30 -17 l-30 -6 2
-231 3 -231 28 -3 c15 -2 27 -8 27 -13 0 -5 -47 -9 -105 -9 -63 0 -105 4 -105
10 0 6 9 10 19 10 49 0 51 6 51 121 l0 109 -145 0 -145 0 0 -103 c0 -109 6
-127 47 -127 13 0 23 -4 23 -10 0 -6 -42 -10 -105 -10 -58 0 -105 4 -105 9 0
5 12 11 28 13 l27 3 3 232 2 231 -30 7 c-17 4 -28 11 -24 16 7 12 191 12 199
-1z m773 -47 c3 -59 -9 -70 -23 -20 l-10 32 -112 3 -113 3 0 -96 0 -95 90 0
c87 0 90 1 96 25 12 49 24 24 24 -50 0 -43 -4 -75 -10 -75 -5 0 -10 8 -10 18
0 34 -21 42 -107 42 l-83 0 0 -94 c0 -121 4 -126 108 -125 107 1 124 8 147 54
23 47 31 30 20 -41 l-6 -44 -205 0 c-129 0 -204 4 -204 10 0 6 11 10 24 10 44
0 47 14 44 245 l-3 218 -33 11 c-18 6 -30 15 -26 19 4 4 94 6 198 5 l191 -3 3
-52z m1072 33 c0 -13 3 -38 6 -55 8 -41 -8 -40 -27 2 l-14 32 -107 3 -108 3 0
-96 0 -95 85 0 c83 0 86 1 96 27 16 43 30 13 27 -58 -3 -63 -18 -82 -28 -37
-6 22 -11 23 -93 26 l-87 3 0 -100 c0 -119 2 -121 112 -121 86 0 117 14 139
59 20 43 28 30 22 -36 l-6 -53 -203 0 c-186 0 -250 8 -175 23 18 4 31 14 35
29 7 29 8 386 0 414 -4 14 -16 24 -35 28 -16 3 -29 10 -29 16 0 6 68 10 195
10 l195 0 0 -24z m362 8 c66 -22 90 -52 96 -119 5 -64 -10 -95 -63 -126 l-34
-20 115 -104 c83 -75 125 -106 150 -111 51 -9 41 -24 -16 -24 -73 0 -116 22
-195 99 -106 103 -119 111 -181 111 l-54 0 0 -73 c0 -86 16 -117 61 -117 16 0
29 -4 29 -10 0 -6 -47 -10 -120 -10 -73 0 -120 4 -120 10 0 6 11 10 24 10 53
0 56 14 56 235 0 112 -3 210 -6 219 -3 8 -21 18 -40 22 -70 13 -18 24 115 24
98 0 151 -4 183 -16z m-1174 -79 c51 -16 52 -16 52 -56 l0 -40 -38 41 c-35 36
-44 40 -87 40 -53 0 -85 -20 -85 -53 0 -26 51 -73 138 -126 108 -67 128 -133
61 -201 -35 -34 -80 -45 -158 -37 -84 9 -88 12 -96 68 -9 63 -2 71 20 25 23
-48 60 -70 117 -70 78 0 121 57 84 110 -8 11 -53 44 -101 73 -50 31 -94 66
-106 84 -33 54 -10 114 56 143 40 18 81 17 143 -1z m444 -41 c4 -56 -3 -66
-18 -22 -10 32 -12 33 -72 36 l-62 3 0 -179 c0 -188 3 -202 47 -202 13 0 23
-4 23 -10 0 -6 -40 -10 -100 -10 -60 0 -100 4 -100 10 0 6 10 10 23 10 44 0
47 14 47 202 l0 179 -62 -3 c-60 -3 -62 -4 -72 -36 -15 -44 -22 -34 -18 22 l4
46 178 0 178 0 4 -46z m-671 -489 c14 -8 32 -28 39 -45 11 -27 11 -37 -3 -65
-8 -18 -29 -39 -45 -46 l-30 -13 43 -27 c45 -29 55 -45 55 -90 0 -95 -116
-150 -216 -103 -84 40 -82 129 2 180 21 13 34 24 27 24 -7 0 -28 14 -48 31
-107 94 41 223 176 154z m294 -1 c27 -18 45 -55 45 -96 0 -54 -38 -115 -118
-188 l-76 -70 87 0 c84 0 87 1 102 28 15 27 15 27 12 -23 l-2 -50 -124 -3
c-68 -1 -128 1 -133 6 -5 5 28 45 75 93 122 122 153 203 100 261 -26 29 -91
24 -125 -9 -15 -15 -28 -33 -28 -40 0 -7 -4 -13 -10 -13 -34 0 20 87 70 113
38 19 87 16 125 -9z m-603 -176 l3 -192 33 -10 c57 -16 35 -26 -58 -26 -89 0
-118 12 -60 25 l30 7 0 164 0 164 -32 -20 c-18 -11 -39 -20 -46 -20 -16 0 98
99 115 99 10 1 13 -47 15 -191z m898 62 l0 -130 25 0 c18 0 25 -5 25 -20 0
-15 -7 -20 -25 -20 -22 0 -24 -4 -27 -57 -3 -51 -6 -58 -25 -61 -22 -3 -23 0
-23 57 l0 61 -90 0 c-54 0 -90 4 -90 10 0 18 204 290 217 290 10 0 13 -31 13
-130z"/>
<path d="M1181 1799 c-5 -13 -25 -61 -44 -106 l-35 -83 89 0 c49 0 89 2 89 5
0 7 -80 198 -85 203 -2 3 -9 -6 -14 -19z"/>
<path d="M4750 1740 l0 -130 58 0 c97 0 142 42 142 131 0 83 -56 129 -155 129
l-45 0 0 -130z"/>
<path d="M3403 1255 c-35 -15 -53 -57 -36 -84 15 -25 73 -61 98 -61 31 0 68
44 68 80 0 59 -68 93 -130 65z"/>
<path d="M3387 1032 c-87 -91 45 -212 134 -123 45 46 34 88 -35 130 -45 28
-67 26 -99 -7z"/>
<path d="M3996 1110 l-66 -90 70 0 70 0 0 90 c0 50 -2 90 -4 90 -2 0 -34 -40
-70 -90z"/>
</g>
</svg>
